<?xml version="1.0" encoding="UTF-8" standalone="no"?>
<svg width="200px" height="44px" viewBox="0 0 200 44" version="1.1" xmlns="http://www.w3.org/2000/svg" xmlns:xlink="http://www.w3.org/1999/xlink">
    <!-- Generator: Sketch 45.1 (43504) - http://www.bohemiancoding.com/sketch -->
    <title>logo_ajuntament</title>
    <desc>Created with Sketch.</desc>
    <defs>
        <polygon id="path-1" points="0 41.6759003 199.610638 41.6759003 199.610638 0.0367313019 0 0.0367313019"></polygon>
    </defs>
    <g id="assets" stroke="none" stroke-width="1" fill="none" fill-rule="evenodd">
        <g id="logo_ajuntament">
            <g id="logo">
                <polygon id="Fill-1" fill="#333333" points="82.0279433 37.5768283 82.0279433 29.1943213 83.1414184 29.1943213 83.1414184 36.5872022 87.2860993 36.5872022 87.2860993 37.5768283"></polygon>
                <polygon id="Fill-2" fill="#333333" points="88.4574468 37.5768283 89.6339174 37.5768283 89.6339174 29.1950277 88.4574468 29.1950277"></polygon>
                <g id="Group-73" transform="translate(0.000000, 0.669640)">
                    <path d="M90.7080851,33.8704986 C90.7080851,32.746662 91.0215603,31.913144 91.6492199,31.3720637 C92.1733333,30.9221053 92.8130496,30.6974792 93.5669504,30.6974792 C94.404539,30.6974792 95.0896454,30.9708449 95.6222695,31.5182825 C96.1541844,32.0650139 96.4201418,32.820831 96.4201418,33.7850277 C96.4201418,34.5662742 96.3024113,35.1808172 96.0669504,35.6293629 C95.8314894,36.0772022 95.4889362,36.4247368 95.0392908,36.6726731 C94.5896454,36.9206094 94.0988652,37.0442244 93.5669504,37.0442244 C92.7130496,37.0442244 92.0236879,36.7715651 91.4974468,36.2262465 C90.9712057,35.6816343 90.7080851,34.8961496 90.7080851,33.8704986 Z M91.7697872,33.8704986 C91.7697872,34.6482133 91.94,35.2309695 92.2811348,35.6173546 C92.6215603,36.004446 93.0499291,36.1979917 93.5669504,36.1979917 C94.0797163,36.1979917 94.5066667,36.0037396 94.8470922,35.6145291 C95.1875177,35.2260249 95.3577305,34.6333795 95.3577305,33.8365928 C95.3577305,33.0857202 95.1868085,32.516385 94.8442553,32.13 C94.5017021,31.7429086 94.075461,31.5493629 93.5669504,31.5493629 C93.0499291,31.5493629 92.6215603,31.7422022 92.2811348,32.1271745 C91.94,32.5121468 91.7697872,33.0934903 91.7697872,33.8704986 Z" id="Fill-3" fill="#333333"></path>
                    <path d="M97.6194326,36.9071884 L97.6194326,30.8345152 L98.5499291,30.8345152 L98.5499291,31.7556233 C98.7868085,31.3247368 99.0059574,31.0407756 99.2073759,30.9030332 C99.4080851,30.7659972 99.6286525,30.6974792 99.8697872,30.6974792 C100.218723,30.6974792 100.572624,30.8083795 100.932199,31.0294737 L100.57617,31.9837812 C100.323688,31.8354432 100.071206,31.7612742 99.8187234,31.7612742 C99.5924823,31.7612742 99.3896454,31.8283795 99.2102128,31.9640028 C99.0300709,32.099626 98.9017021,32.2868144 98.8251064,32.5269806 C98.7102128,32.8928809 98.652766,33.2933934 98.652766,33.7278116 L98.652766,36.9071884 L97.6194326,36.9071884 Z" id="Fill-5" fill="#333333"></path>
                    <path d="M105.720142,34.9512465 L106.787518,35.083338 C106.619433,35.7042382 106.307376,36.1866898 105.852057,36.5292798 C105.396738,36.8725762 104.815177,37.0442244 104.106667,37.0442244 C103.215177,37.0442244 102.508085,36.7708587 101.98539,36.2234211 C101.463404,35.6766898 101.201702,34.9095706 101.201702,33.9220637 C101.201702,32.900651 101.466241,32.1081025 101.993901,31.5437119 C102.52227,30.9793213 103.207376,30.6974792 104.04922,30.6974792 C104.864823,30.6974792 105.53078,30.9736704 106.047092,31.526759 C106.564113,32.0791413 106.82227,32.856856 106.82227,33.8591967 C106.82227,33.920651 106.820142,34.0117729 106.816596,34.1339751 L102.269787,34.1339751 C102.308085,34.8007895 102.497447,35.3114958 102.837872,35.6660942 C103.179007,36.0206925 103.60383,36.1979917 104.11234,36.1979917 C104.491773,36.1979917 104.815177,36.0990997 105.082553,35.9006094 C105.350638,35.7021191 105.563404,35.3863712 105.720142,34.9512465 M102.327234,33.2877424 L105.731489,33.2877424 C105.68539,32.777036 105.555603,32.3934765 105.341418,32.1384765 C105.011631,31.7422022 104.58539,31.5437119 104.060567,31.5437119 C103.586099,31.5437119 103.187518,31.7019391 102.864113,32.0183934 C102.540709,32.3348476 102.361277,32.757964 102.327234,33.2877424" id="Fill-7" fill="#333333"></path>
                    <path d="M108.08539,36.9071884 L108.08539,30.8345152 L109.015177,30.8345152 L109.015177,31.6984072 C109.462695,31.0308864 110.109504,30.6974792 110.955603,30.6974792 C111.322979,30.6974792 111.660567,30.7631717 111.969078,30.8945568 C112.276879,31.0259418 112.507376,31.1990028 112.660567,31.4123269 C112.813759,31.625651 112.920851,31.8792382 112.981844,32.1723823 C113.020142,32.3631025 113.039291,32.6965097 113.039291,33.1733102 L113.039291,36.9071884 L112.005957,36.9071884 L112.005957,33.2135734 C112.005957,32.7939889 111.966241,32.4803601 111.88539,32.272687 C111.805248,32.0650139 111.662695,31.8990166 111.45773,31.7754017 C111.253475,31.6510803 111.01305,31.589626 110.737163,31.589626 C110.297447,31.589626 109.917305,31.7287812 109.598156,32.0070914 C109.278298,32.2854017 109.118723,32.8130609 109.118723,33.5907756 L109.118723,36.9071884 L108.08539,36.9071884 Z" id="Fill-9" fill="#333333"></path>
                    <path d="M118.602411,34.6828255 L119.618723,34.8142105 C119.507376,35.5121053 119.222979,36.0581302 118.766241,36.4522853 C118.308794,36.8471468 117.747092,37.0442244 117.081135,37.0442244 C116.246383,37.0442244 115.57617,36.7722715 115.069078,36.229072 C114.561986,35.6865789 114.308085,34.9074515 114.308085,33.8938089 C114.308085,33.2382964 114.417305,32.664723 114.635745,32.1723823 C114.853475,31.6807479 115.18539,31.3120222 115.631489,31.066205 C116.077589,30.8203878 116.562695,30.6974792 117.086809,30.6974792 C117.748511,30.6974792 118.290355,30.8641828 118.711631,31.19759 C119.132199,31.5309972 119.402411,32.0049723 119.520851,32.6188089 L118.515887,32.7727978 C118.420851,32.3652216 118.251348,32.0586565 118.008085,31.8523961 C117.764823,31.6468421 117.471206,31.5437119 117.127234,31.5437119 C116.606667,31.5437119 116.183262,31.7294875 115.85844,32.1010388 C115.532908,32.47259 115.370496,33.0609972 115.370496,33.8648476 C115.370496,34.6807064 115.527234,35.2733518 115.840709,35.6434903 C116.154894,36.0129224 116.564113,36.1979917 117.069787,36.1979917 C117.475461,36.1979917 117.813759,36.0743767 118.08539,35.8264404 C118.357021,35.5785042 118.529362,35.1970637 118.602411,34.6828255 M116.208085,37.6728947 L116.506667,36.6613712 L117.27617,36.6613712 L117.086809,37.2730886 C117.41234,37.3112327 117.657021,37.410831 117.82156,37.5732964 C117.986099,37.7350554 118.068369,37.9151801 118.068369,38.1136704 C118.068369,38.3990443 117.93078,38.6519252 117.654894,38.8709003 C117.379716,39.0898753 116.964113,39.2000693 116.409504,39.2000693 C116.095319,39.2000693 115.820142,39.176759 115.582553,39.1308449 L115.645674,38.4619114 C115.891064,38.4774515 116.070496,38.4852216 116.18539,38.4852216 C116.544965,38.4852216 116.797447,38.4357756 116.943546,38.3361773 C117.054184,38.2598892 117.109504,38.1666482 117.109504,38.0564543 C117.109504,37.9879363 117.087518,37.926482 117.043546,37.8735042 C116.999574,37.8198199 116.918014,37.7739058 116.799574,37.7357618 C116.681135,37.6976177 116.483972,37.677133 116.208085,37.6728947" id="Fill-11" fill="#333333"></path>
                    <path d="M54.2421277,34.2053186 L55.2931915,34.1141967 C55.3428369,34.5330748 55.4584397,34.8770776 55.64,35.146205 C55.8222695,35.414626 56.104539,35.6321884 56.4868085,35.7974792 C56.8697872,35.9634765 57.3002837,36.0461219 57.7790071,36.0461219 C58.2038298,36.0461219 58.5782979,35.9832548 58.9038298,35.8575208 C59.2293617,35.7317867 59.4712057,35.5594321 59.6300709,35.3404571 C59.7889362,35.1207756 59.8683688,34.8820222 59.8683688,34.6227839 C59.8683688,34.3600139 59.791773,34.1297368 59.6385816,33.934072 C59.4853901,33.7377008 59.2329078,33.57241 58.8811348,33.4389058 C58.6548936,33.3513158 58.1556028,33.2149861 57.3825532,33.0306233 C56.6095035,32.845554 56.0676596,32.6710803 55.7577305,32.5072022 C55.3563121,32.29741 55.0563121,32.0374654 54.8591489,31.726662 C54.662695,31.4158587 54.5641135,31.0683241 54.5641135,30.6833518 C54.5641135,30.2602355 54.6846809,29.8646676 54.9258156,29.4966482 C55.1669504,29.1286288 55.5187234,28.8496122 55.981844,28.658892 C56.4449645,28.4688781 56.9598582,28.373518 57.5258156,28.373518 C58.1499291,28.373518 58.7002837,28.4731163 59.1768794,28.6737258 C59.652766,28.8736288 60.0194326,29.1681856 60.2761702,29.5566898 C60.5321986,29.9459003 60.6697872,30.3859695 60.6889362,30.8776039 L59.6215603,30.9574238 C59.5641135,30.4276454 59.3697872,30.0278393 59.0385816,29.7572992 C58.7080851,29.4860526 58.2187234,29.3511357 57.5719149,29.3511357 C56.898156,29.3511357 56.4073759,29.4740443 56.0995745,29.7198615 C55.791773,29.9656787 55.6371631,30.2623546 55.6371631,30.6091828 C55.6371631,30.910097 55.746383,31.1580332 55.9648227,31.3522853 C56.1790071,31.5465374 56.7385816,31.7457341 57.6435461,31.9498753 C58.5492199,32.1533102 59.1697872,32.3320222 59.5066667,32.4845983 C59.9967376,32.7092244 60.3584397,32.993892 60.591773,33.3393075 C60.8251064,33.6840166 60.9421277,34.0817036 60.9421277,34.5309557 C60.9421277,34.9773823 60.8137589,35.3976731 60.5570213,35.7918283 C60.3009929,36.1866898 59.9321986,36.4932548 59.4520567,36.7122299 C58.9719149,36.9319114 58.4314894,37.0413989 57.8300709,37.0413989 C57.069078,37.0413989 56.4307801,36.9304986 55.9158865,36.7094044 C55.4009929,36.4883102 54.9974468,36.1563158 54.704539,35.7120083 C54.4116312,35.2677008 54.2577305,34.7654709 54.2421277,34.2053186" id="Fill-13" fill="#333333"></path>
                    <path d="M66.3095035,36.1492521 C65.9265248,36.4734765 65.5584397,36.7023407 65.204539,36.8358449 C64.8506383,36.9686427 64.4704965,37.0357479 64.0648227,37.0357479 C63.3953191,37.0357479 62.8804255,36.8725762 62.5208511,36.5469391 C62.1605674,36.2205956 61.9811348,35.8045429 61.9811348,35.2973684 C61.9811348,34.9999861 62.0492199,34.7287396 62.1846809,34.4829224 C62.3208511,34.2371053 62.4988652,34.0393213 62.7187234,33.8909834 C62.9385816,33.7419391 63.1868085,33.629626 63.4619858,33.553338 C63.6648227,33.5003601 63.9712057,33.448795 64.3804255,33.399349 C65.2151773,33.2997507 65.8293617,33.1817867 66.2236879,33.0447507 C66.227234,32.9034765 66.2293617,32.8137673 66.2293617,32.7756233 C66.2293617,32.3567452 66.1314894,32.061482 65.9364539,31.8898338 C65.6719149,31.6574377 65.2797163,31.5408864 64.7591489,31.5408864 C64.2733333,31.5408864 63.9144681,31.625651 63.6832624,31.7951801 C63.4513475,31.9647091 63.2804255,32.2649169 63.169078,32.6958033 L62.1591489,32.5587673 C62.2506383,32.1278809 62.4017021,31.7803463 62.6123404,31.5154571 C62.8229787,31.2505679 63.127234,31.0464266 63.5251064,30.9030332 C63.9229787,30.7603463 64.3846809,30.6890028 64.9087943,30.6890028 C65.4293617,30.6890028 65.8520567,30.7497507 66.1775887,30.8719529 C66.5031206,30.9941551 66.7421277,31.1474377 66.8953191,31.3325069 C67.0478014,31.5168698 67.1556028,31.7506787 67.2165957,32.0325208 C67.2506383,32.2077008 67.2683688,32.5241551 67.2683688,32.9818837 L67.2683688,34.3536565 C67.2683688,35.3107895 67.2903546,35.9161496 67.3343262,36.1690305 C67.3782979,36.4226177 67.4655319,36.6656094 67.5953191,36.8987119 L66.5158865,36.8987119 C66.4087943,36.6846814 66.34,36.4353324 66.3095035,36.1492521 L66.3095035,36.1492521 Z M66.2236879,33.8507202 C65.8485106,34.0032964 65.2853901,34.1325623 64.5357447,34.2399307 C64.110922,34.3006787 63.8102128,34.3691967 63.6343262,34.4454848 C63.4584397,34.5217729 63.3222695,34.6333795 63.2265248,34.7803047 C63.1307801,34.9265235 63.0832624,35.0896953 63.0832624,35.2691136 C63.0832624,35.5431856 63.1875177,35.7720499 63.3960284,35.955 C63.604539,36.1379501 63.9095035,36.229072 64.3116312,36.229072 C64.7095035,36.229072 65.0634043,36.1428947 65.3740426,35.9691274 C65.6839716,35.7960665 65.9116312,35.5587258 66.0570213,35.2571053 C66.1676596,35.0247091 66.2236879,34.6821191 66.2236879,34.2279224 L66.2236879,33.8507202 Z" id="Fill-15" fill="#333333"></path>
                    <path d="M68.8697872,36.8987119 L68.8697872,30.8260388 L69.7995745,30.8260388 L69.7995745,31.6892244 C70.2478014,31.02241 70.8946099,30.6890028 71.74,30.6890028 C72.1073759,30.6890028 72.4456738,30.7546953 72.7534752,30.8860803 C73.0612766,31.0174654 73.2924823,31.1905263 73.4449645,31.4038504 C73.598156,31.6171745 73.7052482,31.8707618 73.7669504,32.1639058 C73.8052482,32.354626 73.8243972,32.6880332 73.8243972,33.1648338 L73.8243972,36.8987119 L72.7910638,36.8987119 L72.7910638,33.2043906 C72.7910638,32.7855125 72.7506383,32.4718837 72.6704965,32.2642105 C72.5896454,32.0565374 72.4470922,31.8905402 72.2428369,31.7669252 C72.0378723,31.6426039 71.7974468,31.5811496 71.5222695,31.5811496 C71.081844,31.5811496 70.7024113,31.7203047 70.3825532,31.998615 C70.062695,32.2762188 69.9031206,32.8045845 69.9031206,33.5822992 L69.9031206,36.8987119 L68.8697872,36.8987119 Z" id="Fill-17" fill="#333333"></path>
                    <path d="M77.6648227,35.9776039 L77.8137589,36.8867036 C77.5229787,36.9481579 77.262695,36.9785319 77.033617,36.9785319 C76.6584397,36.9785319 76.3676596,36.9191967 76.1605674,36.8012327 C75.9541844,36.6832687 75.8087943,36.527867 75.7243972,36.3350277 C75.64,36.1428947 75.598156,35.7374377 75.598156,35.1200693 L75.598156,31.6263573 L74.84,31.6263573 L74.84,30.8260388 L75.598156,30.8260388 L75.598156,29.3221745 L76.6258156,28.7048061 L76.6258156,30.8260388 L77.6648227,30.8260388 L77.6648227,31.6263573 L76.6258156,31.6263573 L76.6258156,35.1772853 C76.6258156,35.4711357 76.6435461,35.6597368 76.6804255,35.7430886 C76.7165957,35.8271468 76.7761702,35.8942521 76.8584397,35.9436981 C76.9407092,35.993144 77.0584397,36.017867 77.210922,36.017867 C77.3258156,36.017867 77.4768794,36.004446 77.6648227,35.9776039" id="Fill-19" fill="#333333"></path>
                    <path d="M127.724397,36.8987119 L127.724397,36.1322992 C127.337872,36.7341274 126.769787,37.0357479 126.019433,37.0357479 C125.533617,37.0357479 125.086809,36.9022438 124.679007,36.6352355 C124.271206,36.3682271 123.955603,35.9959695 123.731489,35.5177562 C123.508085,35.0388366 123.396028,34.4892798 123.396028,33.8676731 C123.396028,33.2616066 123.497447,32.7120499 123.700284,32.2182964 C123.903121,31.7245429 124.207376,31.3466343 124.61305,31.0831579 C125.018723,30.8203878 125.471915,30.6890028 125.973333,30.6890028 C126.340709,30.6890028 126.668369,30.7659972 126.954894,30.9206925 C127.242128,31.0746814 127.475461,31.2759972 127.655603,31.5239335 L127.655603,28.516205 L128.683262,28.516205 L128.683262,36.8987119 L127.724397,36.8987119 Z M124.45773,33.8676731 C124.45773,34.6453878 124.62227,35.2267313 124.951348,35.6117036 C125.280426,35.9966759 125.669078,36.1895152 126.117305,36.1895152 C126.568369,36.1895152 126.952057,36.0051524 127.26766,35.6378393 C127.583972,35.2698199 127.741418,34.7082548 127.741418,33.9538504 C127.741418,33.1224515 127.581135,32.5128532 127.259149,32.124349 C126.937872,31.7351385 126.542128,31.5408864 126.071206,31.5408864 C125.611631,31.5408864 125.227943,31.7273684 124.920142,32.1010388 C124.611631,32.4747091 124.45773,33.0638227 124.45773,33.8676731 L124.45773,33.8676731 Z" id="Fill-21" fill="#333333"></path>
                    <path d="M134.481135,34.9427701 L135.54922,35.0741551 C135.380426,35.6957618 135.069078,36.1782133 134.61305,36.5208033 C134.15773,36.8640997 133.57617,37.0357479 132.868369,37.0357479 C131.97617,37.0357479 131.269078,36.7623823 130.747092,36.2149446 C130.224397,35.6682133 129.963404,34.9010942 129.963404,33.9135873 C129.963404,32.8921745 130.227234,32.099626 130.755603,31.5352355 C131.283972,30.9708449 131.969078,30.6890028 132.810922,30.6890028 C133.625816,30.6890028 134.291773,30.9651939 134.808794,31.5182825 C135.325106,32.0706648 135.583262,32.8483795 135.583262,33.8507202 C135.583262,33.9121745 135.581844,34.0032964 135.577589,34.1254986 L131.03078,34.1254986 C131.069078,34.792313 131.259149,35.3030194 131.599574,35.6576177 C131.94,36.0122161 132.364823,36.1895152 132.874043,36.1895152 C133.252766,36.1895152 133.57617,36.0906233 133.844255,35.892133 C134.111631,35.6936427 134.324397,35.3771884 134.481135,34.9427701 M131.088227,33.2792659 L134.492482,33.2792659 C134.447092,32.7685596 134.316596,32.385 134.102411,32.13 C133.773333,31.7337258 133.346383,31.5352355 132.82227,31.5352355 C132.347801,31.5352355 131.948511,31.6934626 131.625106,32.0099169 C131.301702,32.3263712 131.122979,32.7494875 131.088227,33.2792659" id="Fill-23" fill="#333333"></path>
                    <path d="M136.432908,35.0861634 L137.454894,34.9258172 C137.51234,35.3333934 137.671915,35.6463158 137.934326,35.8631717 C138.196738,36.0807341 138.562695,36.1895152 139.033617,36.1895152 C139.508085,36.1895152 139.860567,36.0934488 140.090355,35.9006094 C140.319433,35.7084765 140.434326,35.4824377 140.434326,35.2231994 C140.434326,34.9908033 140.332908,34.8078532 140.130071,34.674349 C139.988936,34.5825208 139.636454,34.4666759 139.074043,34.3254017 C138.315887,34.1346814 137.791064,33.970097 137.498156,33.8309418 C137.205248,33.6917867 136.983262,33.4989474 136.832199,33.2531302 C136.681135,33.007313 136.605248,32.7360665 136.605248,32.4386842 C136.605248,32.168144 136.66766,31.9173823 136.791773,31.6863989 C136.916596,31.4561219 137.08539,31.2646953 137.300284,31.1121191 C137.460567,30.9941551 137.679716,30.8938504 137.957021,30.8119114 C138.235035,30.7299723 138.532199,30.6890028 138.849929,30.6890028 C139.328652,30.6890028 139.748511,30.7575208 140.110213,30.8945568 C140.471915,31.0322992 140.738582,31.2180748 140.910922,31.45259 C141.083262,31.6863989 141.201702,32.0000277 141.26695,32.3927701 L140.256312,32.5298061 C140.210922,32.21759 140.077589,31.9731856 139.85773,31.7980055 C139.637163,31.6228255 139.326525,31.5352355 138.924397,31.5352355 C138.449929,31.5352355 138.111631,31.6136427 137.908794,31.7697507 C137.705957,31.9258587 137.604539,32.1088089 137.604539,32.3186011 C137.604539,32.4521053 137.646383,32.5721884 137.73078,32.6788504 C137.814468,32.7890443 137.947092,32.8808726 138.126525,32.9529224 C138.230071,32.9910665 138.534326,33.0786565 139.039291,33.2163989 C139.770496,33.410651 140.280426,33.5695845 140.569078,33.6939058 C140.85844,33.8175208 141.08539,33.9976454 141.249929,34.2342798 C141.414468,34.4702078 141.496738,34.7640582 141.496738,35.1144183 C141.496738,35.4577147 141.396028,35.7805263 141.195319,36.0835596 C140.993901,36.3865928 140.704539,36.621108 140.325106,36.7871053 C139.946383,36.9523961 139.518014,37.0357479 139.039291,37.0357479 C138.247092,37.0357479 137.643546,36.8718698 137.227943,36.5441136 C136.81305,36.2163573 136.547801,35.730374 136.432908,35.0861634" id="Fill-25" fill="#333333"></path>
                    <path d="M152.128652,33.9595014 L153.242128,34.2399307 C153.008794,35.1504432 152.588936,35.8455125 151.981844,36.3237258 C151.375461,36.8019391 150.633617,37.0413989 149.75773,37.0413989 C148.850638,37.0413989 148.11305,36.8577424 147.544255,36.489723 C146.97617,36.1217036 146.543546,35.5890997 146.247092,34.891205 C145.950638,34.1940166 145.802411,33.4445568 145.802411,32.6442382 C145.802411,31.7711634 145.969787,31.0104017 146.304539,30.3598338 C146.639291,29.7099723 147.115887,29.2169252 147.733617,28.8792798 C148.352057,28.5416343 149.032199,28.373518 149.774752,28.373518 C150.616596,28.373518 151.325106,28.5868421 151.898865,29.0134903 C152.472624,29.4408449 152.872624,30.0412604 153.098865,30.8147368 L152.002411,31.071856 C151.806667,30.4622576 151.523688,30.0179501 151.152766,29.7396399 C150.781135,29.4613296 150.314468,29.3221745 149.752057,29.3221745 C149.105248,29.3221745 148.564113,29.4768698 148.130071,29.785554 C147.695319,30.0942382 147.390355,30.5088781 147.214468,31.0294737 C147.038582,31.5493629 146.950638,32.086205 146.950638,32.6385873 C146.950638,33.3513158 147.054894,33.9736288 147.263404,34.5055263 C147.471915,35.0374238 147.796028,35.4344044 148.236454,35.6978809 C148.67617,35.960651 149.152766,36.092036 149.665532,36.092036 C150.289645,36.092036 150.818014,35.9133241 151.249929,35.5544875 C151.682553,35.1963573 151.975461,34.6644598 152.128652,33.9595014" id="Fill-27" fill="#333333"></path>
                    <path d="M158.460567,36.1492521 C158.077589,36.4734765 157.709504,36.7023407 157.355603,36.8358449 C157.001702,36.9686427 156.62156,37.0357479 156.215887,37.0357479 C155.546383,37.0357479 155.031489,36.8725762 154.671915,36.5469391 C154.311631,36.2205956 154.132199,35.8045429 154.132199,35.2973684 C154.132199,34.9999861 154.200284,34.7287396 154.335745,34.4829224 C154.471915,34.2371053 154.649929,34.0393213 154.869787,33.8909834 C155.089645,33.7419391 155.337872,33.629626 155.61305,33.553338 C155.815887,33.5003601 156.12227,33.448795 156.531489,33.399349 C157.366241,33.2997507 157.980426,33.1817867 158.374752,33.0447507 C158.378298,32.9034765 158.380426,32.8137673 158.380426,32.7756233 C158.380426,32.3567452 158.282553,32.061482 158.087518,31.8898338 C157.823688,31.6574377 157.43078,31.5408864 156.910213,31.5408864 C156.424397,31.5408864 156.065532,31.625651 155.834326,31.7951801 C155.602411,31.9647091 155.431489,32.2649169 155.320142,32.6958033 L154.310213,32.5587673 C154.401702,32.1278809 154.552766,31.7803463 154.763404,31.5154571 C154.974043,31.2505679 155.278298,31.0464266 155.67617,30.9030332 C156.074043,30.7603463 156.535745,30.6890028 157.059858,30.6890028 C157.580426,30.6890028 158.003121,30.7497507 158.328652,30.8719529 C158.654184,30.9941551 158.893191,31.1474377 159.046383,31.3325069 C159.198865,31.5168698 159.306667,31.7506787 159.36766,32.0325208 C159.401702,32.2077008 159.419433,32.5241551 159.419433,32.9818837 L159.419433,34.3536565 C159.419433,35.3107895 159.441418,35.9161496 159.48539,36.1690305 C159.529362,36.4226177 159.616596,36.6656094 159.746383,36.8987119 L158.66695,36.8987119 C158.559858,36.6846814 158.491064,36.4353324 158.460567,36.1492521 L158.460567,36.1492521 Z M158.374752,33.8507202 C157.999574,34.0032964 157.436454,34.1325623 156.686809,34.2399307 C156.261986,34.3006787 155.961277,34.3691967 155.78539,34.4454848 C155.609504,34.5217729 155.473333,34.6333795 155.377589,34.7803047 C155.281844,34.9265235 155.234326,35.0896953 155.234326,35.2691136 C155.234326,35.5431856 155.338582,35.7720499 155.547092,35.955 C155.755603,36.1379501 156.060567,36.229072 156.462695,36.229072 C156.860567,36.229072 157.214468,36.1428947 157.525106,35.9691274 C157.835035,35.7960665 158.062695,35.5587258 158.208085,35.2571053 C158.318723,35.0247091 158.374752,34.6821191 158.374752,34.2279224 L158.374752,33.8507202 Z" id="Fill-29" fill="#333333"></path>
                    <path d="M161.009504,36.8987119 L161.009504,30.8260388 L161.939291,30.8260388 L161.939291,31.7464404 C162.176879,31.3162604 162.396028,31.0322992 162.596738,30.8945568 C162.797447,30.7575208 163.018723,30.6890028 163.259858,30.6890028 C163.608085,30.6890028 163.961986,30.7991967 164.32156,31.0202909 L163.966241,31.9753047 C163.71305,31.8269668 163.460567,31.7520914 163.208085,31.7520914 C162.982553,31.7520914 162.779716,31.819903 162.599574,31.9555263 C162.420142,32.0904432 162.291773,32.278338 162.215177,32.5185042 C162.100284,32.8844044 162.042837,33.2849169 162.042837,33.7193352 L162.042837,36.8987119 L161.009504,36.8987119 Z" id="Fill-31" fill="#333333"></path>
                    <path d="M168.891773,36.8987119 L168.891773,36.1322992 C168.505248,36.7341274 167.936454,37.0357479 167.186809,37.0357479 C166.700284,37.0357479 166.253475,36.9022438 165.846383,36.6352355 C165.438582,36.3682271 165.122979,35.9959695 164.898865,35.5177562 C164.674752,35.0388366 164.562695,34.4892798 164.562695,33.8676731 C164.562695,33.2616066 164.664113,32.7120499 164.86695,32.2182964 C165.069787,31.7245429 165.374043,31.3466343 165.779716,31.0831579 C166.186099,30.8203878 166.639291,30.6890028 167.140709,30.6890028 C167.508085,30.6890028 167.835035,30.7659972 168.12227,30.9206925 C168.409504,31.0746814 168.642837,31.2759972 168.822979,31.5239335 L168.822979,28.516205 L169.849929,28.516205 L169.849929,36.8987119 L168.891773,36.8987119 Z M165.625106,33.8676731 C165.625106,34.6453878 165.789645,35.2267313 166.118723,35.6117036 C166.447801,35.9966759 166.836454,36.1895152 167.283972,36.1895152 C167.735745,36.1895152 168.119433,36.0051524 168.435035,35.6378393 C168.750638,35.2698199 168.908794,34.7082548 168.908794,33.9538504 C168.908794,33.1224515 168.747801,32.5128532 168.426525,32.124349 C168.105248,31.7351385 167.708794,31.5408864 167.237872,31.5408864 C166.779007,31.5408864 166.395319,31.7273684 166.087518,32.1010388 C165.779007,32.4747091 165.625106,33.0638227 165.625106,33.8676731 L165.625106,33.8676731 Z" id="Fill-33" fill="#333333"></path>
                    <path d="M175.453475,36.1492521 C175.070496,36.4734765 174.702411,36.7023407 174.348511,36.8358449 C173.993901,36.9686427 173.614468,37.0357479 173.208794,37.0357479 C172.538582,37.0357479 172.024397,36.8725762 171.664113,36.5469391 C171.304539,36.2205956 171.124397,35.8045429 171.124397,35.2973684 C171.124397,34.9999861 171.192482,34.7287396 171.328652,34.4829224 C171.464113,34.2371053 171.642128,34.0393213 171.862695,33.8909834 C172.082553,33.7419391 172.330071,33.629626 172.605957,33.553338 C172.808794,33.5003601 173.115177,33.448795 173.524397,33.399349 C174.35844,33.2997507 174.972624,33.1817867 175.36695,33.0447507 C175.371206,32.9034765 175.372624,32.8137673 175.372624,32.7756233 C175.372624,32.3567452 175.275461,32.061482 175.080426,31.8898338 C174.815887,31.6574377 174.423688,31.5408864 173.903121,31.5408864 C173.417305,31.5408864 173.05844,31.625651 172.826525,31.7951801 C172.595319,31.9647091 172.424397,32.2649169 172.31305,32.6958033 L171.302411,32.5587673 C171.39461,32.1278809 171.545674,31.7803463 171.756312,31.5154571 C171.96695,31.2505679 172.271206,31.0464266 172.669078,30.9030332 C173.06695,30.7603463 173.527943,30.6890028 174.052766,30.6890028 C174.573333,30.6890028 174.996028,30.7497507 175.32156,30.8719529 C175.646383,30.9941551 175.886099,31.1474377 176.038582,31.3325069 C176.191773,31.5168698 176.298865,31.7506787 176.360567,32.0325208 C176.39461,32.2077008 176.41234,32.5241551 176.41234,32.9818837 L176.41234,34.3536565 C176.41234,35.3107895 176.434326,35.9161496 176.478298,36.1690305 C176.52227,36.4226177 176.608794,36.6656094 176.739291,36.8987119 L175.659858,36.8987119 C175.552766,36.6846814 175.483972,36.4353324 175.453475,36.1492521 L175.453475,36.1492521 Z M175.36695,33.8507202 C174.991773,34.0032964 174.429362,34.1325623 173.679716,34.2399307 C173.254894,34.3006787 172.954184,34.3691967 172.778298,34.4454848 C172.601702,34.5217729 172.466241,34.6333795 172.370496,34.7803047 C172.274752,34.9265235 172.227234,35.0896953 172.227234,35.2691136 C172.227234,35.5431856 172.331489,35.7720499 172.54,35.955 C172.748511,36.1379501 173.053475,36.229072 173.455603,36.229072 C173.853475,36.229072 174.207376,36.1428947 174.517305,35.9691274 C174.827234,35.7960665 175.055603,35.5587258 175.200993,35.2571053 C175.311631,35.0247091 175.36695,34.6821191 175.36695,34.2279224 L175.36695,33.8507202 Z" id="Fill-35" fill="#333333"></path>
                    <path d="M177.600284,35.0861634 L178.62227,34.9258172 C178.679716,35.3333934 178.839291,35.6463158 179.101702,35.8631717 C179.363404,36.0807341 179.730071,36.1895152 180.200993,36.1895152 C180.675461,36.1895152 181.027943,36.0934488 181.257021,35.9006094 C181.486809,35.7084765 181.601702,35.4824377 181.601702,35.2231994 C181.601702,34.9908033 181.500284,34.8078532 181.297447,34.674349 C181.155603,34.5825208 180.80383,34.4666759 180.241418,34.3254017 C179.483262,34.1346814 178.95773,33.970097 178.665532,33.8309418 C178.372624,33.6917867 178.150638,33.4989474 177.999574,33.2531302 C177.847801,33.007313 177.772624,32.7360665 177.772624,32.4386842 C177.772624,32.168144 177.835035,31.9173823 177.959149,31.6863989 C178.083262,31.4561219 178.252766,31.2646953 178.46695,31.1121191 C178.627943,30.9941551 178.847092,30.8938504 179.124397,30.8119114 C179.401702,30.7299723 179.699574,30.6890028 180.017305,30.6890028 C180.495319,30.6890028 180.915887,30.7575208 181.277589,30.8945568 C181.639291,31.0322992 181.905957,31.2180748 182.078298,31.45259 C182.250638,31.6863989 182.369078,32.0000277 182.434326,32.3927701 L181.423688,32.5298061 C181.377589,32.21759 181.244965,31.9731856 181.024397,31.7980055 C180.804539,31.6228255 180.493901,31.5352355 180.091773,31.5352355 C179.617305,31.5352355 179.278298,31.6136427 179.075461,31.7697507 C178.872624,31.9258587 178.771206,32.1088089 178.771206,32.3186011 C178.771206,32.4521053 178.813759,32.5721884 178.897447,32.6788504 C178.981844,32.7890443 179.113759,32.8808726 179.293901,32.9529224 C179.397447,32.9910665 179.701702,33.0786565 180.206667,33.2163989 C180.937872,33.410651 181.447801,33.5695845 181.736454,33.6939058 C182.025816,33.8175208 182.252057,33.9976454 182.416596,34.2342798 C182.581135,34.4702078 182.663404,34.7640582 182.663404,35.1144183 C182.663404,35.4577147 182.563404,35.7805263 182.361986,36.0835596 C182.161277,36.3865928 181.871206,36.621108 181.492482,36.7871053 C181.113759,36.9523961 180.68539,37.0357479 180.206667,37.0357479 C179.414468,37.0357479 178.810922,36.8718698 178.395319,36.5441136 C177.980426,36.2163573 177.715177,35.730374 177.600284,35.0861634" id="Fill-37" fill="#333333"></path>
                    <path d="M183.479007,35.0861634 L184.500993,34.9258172 C184.55844,35.3333934 184.718014,35.6463158 184.980426,35.8631717 C185.242128,36.0807341 185.608794,36.1895152 186.079716,36.1895152 C186.554184,36.1895152 186.905957,36.0934488 187.135745,35.9006094 C187.365532,35.7084765 187.480426,35.4824377 187.480426,35.2231994 C187.480426,34.9908033 187.379007,34.8078532 187.17617,34.674349 C187.034326,34.5825208 186.682553,34.4666759 186.119433,34.3254017 C185.361986,34.1346814 184.836454,33.970097 184.543546,33.8309418 C184.251348,33.6917867 184.029362,33.4989474 183.877589,33.2531302 C183.726525,33.007313 183.651348,32.7360665 183.651348,32.4386842 C183.651348,32.168144 183.71305,31.9173823 183.837872,31.6863989 C183.961986,31.4561219 184.131489,31.2646953 184.345674,31.1121191 C184.506667,30.9941551 184.725816,30.8938504 185.003121,30.8119114 C185.280426,30.7299723 185.578298,30.6890028 185.896028,30.6890028 C186.374043,30.6890028 186.793901,30.7575208 187.155603,30.8945568 C187.517305,31.0322992 187.784681,31.2180748 187.957021,31.45259 C188.128652,31.6863989 188.247801,32.0000277 188.31234,32.3927701 L187.302411,32.5298061 C187.256312,32.21759 187.123688,31.9731856 186.903121,31.7980055 C186.683262,31.6228255 186.371915,31.5352355 185.970496,31.5352355 C185.496028,31.5352355 185.157021,31.6136427 184.954184,31.7697507 C184.751348,31.9258587 184.649929,32.1088089 184.649929,32.3186011 C184.649929,32.4521053 184.691773,32.5721884 184.77617,32.6788504 C184.860567,32.7890443 184.992482,32.8808726 185.172624,32.9529224 C185.275461,32.9910665 185.579716,33.0786565 186.08539,33.2163989 C186.815887,33.410651 187.326525,33.5695845 187.615177,33.6939058 C187.90383,33.8175208 188.13078,33.9976454 188.295319,34.2342798 C188.459858,34.4702078 188.542128,34.7640582 188.542128,35.1144183 C188.542128,35.4577147 188.442128,35.7805263 188.240709,36.0835596 C188.04,36.3865928 187.749929,36.621108 187.371206,36.7871053 C186.992482,36.9523961 186.563404,37.0357479 186.08539,37.0357479 C185.293191,37.0357479 184.688936,36.8718698 184.274043,36.5441136 C183.85844,36.2163573 183.593901,35.730374 183.479007,35.0861634" id="Fill-39" fill="#333333"></path>
                    <path d="M193.74922,36.1492521 C193.366241,36.4734765 192.998156,36.7023407 192.644255,36.8358449 C192.290355,36.9686427 191.910213,37.0357479 191.504539,37.0357479 C190.835035,37.0357479 190.320142,36.8725762 189.960567,36.5469391 C189.600284,36.2205956 189.420851,35.8045429 189.420851,35.2973684 C189.420851,34.9999861 189.488227,34.7287396 189.624397,34.4829224 C189.760567,34.2371053 189.938582,34.0393213 190.15844,33.8909834 C190.378298,33.7419391 190.626525,33.629626 190.901702,33.553338 C191.104539,33.5003601 191.410922,33.448795 191.820142,33.399349 C192.654894,33.2997507 193.269078,33.1817867 193.663404,33.0447507 C193.66695,32.9034765 193.669078,32.8137673 193.669078,32.7756233 C193.669078,32.3567452 193.571206,32.061482 193.37617,31.8898338 C193.111631,31.6574377 192.719433,31.5408864 192.198865,31.5408864 C191.71305,31.5408864 191.354184,31.625651 191.122979,31.7951801 C190.891064,31.9647091 190.720142,32.2649169 190.608794,32.6958033 L189.598865,32.5587673 C189.690355,32.1278809 189.841418,31.7803463 190.052057,31.5154571 C190.262695,31.2505679 190.56695,31.0464266 190.964823,30.9030332 C191.362695,30.7603463 191.824397,30.6890028 192.348511,30.6890028 C192.869078,30.6890028 193.291773,30.7497507 193.617305,30.8719529 C193.942128,30.9941551 194.181844,31.1474377 194.335035,31.3325069 C194.487518,31.5168698 194.595319,31.7506787 194.656312,32.0325208 C194.690355,32.2077008 194.708085,32.5241551 194.708085,32.9818837 L194.708085,34.3536565 C194.708085,35.3107895 194.730071,35.9161496 194.774043,36.1690305 C194.818014,36.4226177 194.905248,36.6656094 195.035035,36.8987119 L193.955603,36.8987119 C193.848511,36.6846814 193.779716,36.4353324 193.74922,36.1492521 L193.74922,36.1492521 Z M193.663404,33.8507202 C193.288227,34.0032964 192.725106,34.1325623 191.975461,34.2399307 C191.550638,34.3006787 191.249929,34.3691967 191.074043,34.4454848 C190.898156,34.5217729 190.761986,34.6333795 190.666241,34.7803047 C190.570496,34.9265235 190.522979,35.0896953 190.522979,35.2691136 C190.522979,35.5431856 190.627234,35.7720499 190.835745,35.955 C191.044255,36.1379501 191.34922,36.229072 191.751348,36.229072 C192.14922,36.229072 192.503121,36.1428947 192.813759,35.9691274 C193.123688,35.7960665 193.351348,35.5587258 193.496738,35.2571053 C193.607376,35.0247091 193.663404,34.6821191 193.663404,34.2279224 L193.663404,33.8507202 Z" id="Fill-41" fill="#333333"></path>
                    <path d="M196.298156,36.8987119 L196.298156,30.8260388 L197.227943,30.8260388 L197.227943,31.7464404 C197.465532,31.3162604 197.684681,31.0322992 197.88539,30.8945568 C198.086099,30.7575208 198.307376,30.6890028 198.548511,30.6890028 C198.896738,30.6890028 199.250638,30.7991967 199.610213,31.0202909 L199.254894,31.9753047 C199.001702,31.8269668 198.74922,31.7520914 198.496738,31.7520914 C198.271206,31.7520914 198.068369,31.819903 197.888227,31.9555263 C197.708085,32.0904432 197.580426,32.278338 197.50383,32.5185042 C197.388936,32.8844044 197.331489,33.2849169 197.331489,33.7193352 L197.331489,36.8987119 L196.298156,36.8987119 Z" id="Fill-43" fill="#333333"></path>
                    <path d="M69.3641135,19.673144 L66.0534752,19.673144 L64.7378723,16.2634903 L58.7137589,16.2634903 L57.4704965,19.673144 L54.2421277,19.673144 L60.1123404,4.6634626 L63.3293617,4.6634626 L69.3641135,19.673144 Z M63.7612766,13.7346814 L61.6846809,8.1649446 L59.6492199,13.7346814 L63.7612766,13.7346814 Z" id="Fill-45" fill="#333333"></path>
                    <mask id="mask-2" fill="white">
                        <use xlink:href="#path-1"></use>
                    </mask>
                    <g id="Clip-48"></g>
                    <path d="M70.8950355,7.32506925 L73.7836879,7.32506925 L73.7836879,4.6634626 L70.8950355,4.6634626 L70.8950355,7.32506925 Z M73.7836879,8.7999723 L73.7836879,19.3347922 C73.7836879,20.7206925 73.6929078,21.6983102 73.5113475,22.2683518 C73.3297872,22.8383934 72.9801418,23.2834072 72.4631206,23.6040997 C71.9453901,23.9254986 71.2858156,24.0858449 70.4843972,24.0858449 C70.1964539,24.0858449 69.8858156,24.0597091 69.5539007,24.0088504 C69.2212766,23.9579917 68.8631206,23.8809972 68.4794326,23.7785734 L68.9829787,21.321108 C69.1205674,21.3486565 69.2489362,21.370554 69.3687943,21.3875069 C69.4886525,21.4051662 69.6,21.4136427 69.7028369,21.4136427 C69.9971631,21.4136427 70.2390071,21.3500693 70.4276596,21.2243352 C70.6163121,21.0978947 70.7411348,20.9460249 70.8028369,20.7687258 C70.864539,20.5907202 70.8950355,20.0588227 70.8950355,19.1709141 L70.8950355,8.7999723 L73.7836879,8.7999723 Z" id="Fill-47" fill="#333333" mask="url(#mask-2)"></path>
                    <path d="M83.991773,19.673144 L83.991773,18.0449584 C83.5946099,18.6248892 83.0719149,19.0826177 82.4243972,19.4167313 C81.7768794,19.7515512 81.0931915,19.9182548 80.3733333,19.9182548 C79.64,19.9182548 78.9825532,19.7579086 78.3995745,19.4372161 C77.817305,19.1165235 77.3960284,18.6658587 77.1350355,18.085928 C76.8747518,17.5059972 76.7449645,16.7035596 76.7449645,15.6800277 L76.7449645,8.7999723 L79.633617,8.7999723 L79.633617,13.7961357 C79.633617,15.324723 79.6860993,16.2620776 79.7924823,16.6067867 C79.8988652,16.9514958 80.0924823,17.2241551 80.3733333,17.4254709 C80.6541844,17.6267867 81.010922,17.7277978 81.4428369,17.7277978 C81.9357447,17.7277978 82.3782979,17.5928809 82.7683688,17.3230471 C83.1591489,17.0532133 83.4265248,16.7190997 83.5704965,16.32 C83.7144681,15.9201939 83.7860993,14.9425762 83.7860993,13.3864404 L83.7860993,8.7999723 L86.6747518,8.7999723 L86.6747518,19.673144 L83.991773,19.673144 Z" id="Fill-49" fill="#333333" mask="url(#mask-2)"></path>
                    <path d="M99.5967376,19.673144 L96.7080851,19.673144 L96.7080851,14.123892 C96.7080851,12.949903 96.646383,12.190554 96.5229787,11.8458449 C96.3995745,11.5011357 96.1988652,11.2327147 95.9215603,11.0419945 C95.6442553,10.8505679 95.3095035,10.7552078 94.9194326,10.7552078 C94.4187234,10.7552078 93.9697872,10.8915374 93.5726241,11.164903 C93.1747518,11.4375623 92.9024113,11.7992244 92.7556028,12.2498892 C92.6080851,12.700554 92.5343262,13.5333657 92.5343262,14.7483241 L92.5343262,19.673144 L89.6456738,19.673144 L89.6456738,8.7999723 L92.3286525,8.7999723 L92.3286525,10.3970776 C93.2811348,9.16799169 94.4804255,8.55415512 95.9265248,8.55415512 C96.5641135,8.55415512 97.146383,8.66858726 97.6740426,8.89674515 C98.2017021,9.12560942 98.6009929,9.41734072 98.8719149,9.77264543 C99.1421277,10.1272438 99.3307801,10.5298753 99.4371631,10.9805402 C99.5435461,11.431205 99.5967376,12.0761219 99.5967376,12.9152909 L99.5967376,19.673144 Z" id="Fill-50" fill="#333333" mask="url(#mask-2)"></path>
                    <path d="M107.532199,8.7999723 L107.532199,11.0928532 L105.55844,11.0928532 L105.55844,15.4751801 C105.55844,16.3623823 105.577589,16.879446 105.615177,17.0263712 C105.652766,17.1732964 105.738582,17.2940859 105.872624,17.389446 C106.005957,17.4855125 106.168369,17.5328393 106.360567,17.5328393 C106.627943,17.5328393 107.015177,17.4410111 107.52227,17.2566482 L107.769078,19.4887812 C107.097447,19.7755679 106.336454,19.9182548 105.486809,19.9182548 C104.966241,19.9182548 104.496738,19.8313712 104.078298,19.6576039 C103.660567,19.4831302 103.353475,19.2585042 103.15844,18.9816066 C102.963404,18.7054155 102.827943,18.3317452 102.752057,17.8605956 C102.690355,17.526482 102.659858,16.8504848 102.659858,15.8333102 L102.659858,11.0928532 L101.333617,11.0928532 L101.333617,8.7999723 L102.659858,8.7999723 L102.659858,6.63918283 L105.55844,4.9601385 L105.55844,8.7999723 L107.532199,8.7999723 Z" id="Fill-51" fill="#333333" mask="url(#mask-2)"></path>
                    <path d="M111.696028,12.1170914 L109.074752,11.6459418 C109.369078,10.5948615 109.87617,9.81644044 110.596028,9.31138504 C111.315177,8.80632964 112.384681,8.55415512 113.803121,8.55415512 C115.091773,8.55415512 116.050638,8.70602493 116.681135,9.00976454 C117.311631,9.31350416 117.755603,9.69918283 118.01234,10.1668006 C118.269787,10.6337119 118.398156,11.4926593 118.398156,12.7415235 L118.36695,16.0996122 C118.36695,17.0553324 118.413759,17.7602909 118.505957,18.2137812 C118.598865,18.6679778 118.771915,19.1539612 119.025106,19.673144 L116.16766,19.673144 C116.091773,19.4817175 115.999574,19.1984626 115.889645,18.8233795 C115.842128,18.6524377 115.807376,18.5401247 115.786809,18.4850277 C115.293901,18.963241 114.766241,19.3213712 114.20383,19.5601247 C113.642128,19.7988781 113.042128,19.9182548 112.405248,19.9182548 C111.281135,19.9182548 110.395319,19.6145152 109.747801,19.007036 C109.100284,18.3995568 108.77617,17.6317313 108.77617,16.7035596 C108.77617,16.089723 108.923688,15.5415789 109.218014,15.0605402 C109.51305,14.5795014 109.925816,14.2107756 110.457021,13.9550693 C110.988227,13.6986565 111.754184,13.4754432 112.754894,13.2840166 C114.104539,13.0318421 115.04,12.7959141 115.560567,12.5776454 L115.560567,12.2908587 C115.560567,11.7377701 115.423688,11.343615 115.149929,11.1083934 C114.875461,10.8731717 114.35844,10.7552078 113.597447,10.7552078 C113.083262,10.7552078 112.682553,10.8562188 112.39461,11.0575346 C112.106667,11.2588504 111.874043,11.612036 111.696028,12.1170914 L111.696028,12.1170914 Z M115.560567,14.4509418 C115.191064,14.5738504 114.605248,14.7207756 113.803121,14.8917175 C113.000993,15.0619529 112.476879,15.2293629 112.230071,15.393241 C111.853475,15.6595429 111.664823,15.9971884 111.664823,16.4068837 C111.664823,16.8095152 111.815887,17.1577562 112.117305,17.4509003 C112.418723,17.7447507 112.802411,17.8916759 113.268369,17.8916759 C113.789645,17.8916759 114.286099,17.7207341 114.759149,17.3795568 C115.108794,17.1203186 115.337872,16.8024515 115.447801,16.4273684 C115.522979,16.1815512 115.560567,15.7139335 115.560567,15.0245152 L115.560567,14.4509418 Z" id="Fill-52" fill="#333333" mask="url(#mask-2)"></path>
                    <path d="M121.030071,8.7999723 L123.692482,8.7999723 L123.692482,10.2840582 C124.644965,9.13055402 125.779007,8.55415512 127.09461,8.55415512 C127.793901,8.55415512 128.400284,8.69754848 128.914468,8.98362881 C129.427943,9.27041551 129.849929,9.70412742 130.179007,10.2840582 C130.65844,9.70412742 131.175461,9.27041551 131.73078,8.98362881 C132.286099,8.69754848 132.879007,8.55415512 133.509504,8.55415512 C134.310922,8.55415512 134.989645,8.71591413 135.544965,9.0401385 C136.099574,9.36436288 136.514468,9.84045706 136.788227,10.4684211 C136.987518,10.9325069 137.086809,11.6833795 137.086809,12.7210388 L137.086809,19.673144 L134.198156,19.673144 L134.198156,13.4584903 C134.198156,12.3798615 134.098865,11.6833795 133.900284,11.3697507 C133.632908,10.9600554 133.22156,10.7552078 132.666241,10.7552078 C132.261986,10.7552078 131.881844,10.8781163 131.525106,11.1239335 C131.169078,11.3697507 130.911631,11.7292936 130.754184,12.2039751 C130.596738,12.6786565 130.518014,13.42741 130.518014,14.4509418 L130.518014,19.673144 L127.629362,19.673144 L127.629362,13.7141967 C127.629362,12.6560526 127.577589,11.9736981 127.475461,11.6664266 C127.372624,11.3591551 127.21305,11.1302909 126.997447,10.9805402 C126.781135,10.8300831 126.488227,10.7552078 126.118014,10.7552078 C125.672624,10.7552078 125.271915,10.8745845 124.915177,11.113338 C124.559149,11.3527978 124.30383,11.6968006 124.149929,12.1474654 C123.995319,12.5981302 123.918014,13.3454709 123.918014,14.3901939 L123.918014,19.673144 L121.030071,19.673144 L121.030071,8.7999723 Z" id="Fill-53" fill="#333333" mask="url(#mask-2)"></path>
                    <path d="M146.286809,16.2126316 L149.165532,16.6936704 C148.795319,17.7447507 148.210922,18.5450693 147.41234,19.094626 C146.614468,19.6441828 145.615177,19.9182548 144.415887,19.9182548 C142.518014,19.9182548 141.11305,19.3008864 140.201702,18.0654432 C139.481844,17.0758172 139.12227,15.8269529 139.12227,14.318144 C139.12227,12.5161911 139.59461,11.1048615 140.540709,10.0848615 C141.486099,9.06415512 142.682553,8.55415512 144.127943,8.55415512 C145.752766,8.55415512 147.034326,9.08817175 147.972624,10.156205 C148.911631,11.2242382 149.360567,12.8609003 149.319433,15.0654848 L142.082553,15.0654848 C142.103121,15.9187812 142.336454,16.5827701 142.781844,17.0567452 C143.227234,17.5314266 143.781844,17.7687673 144.447092,17.7687673 C144.899574,17.7687673 145.279716,17.6458587 145.588227,17.4000416 C145.896028,17.1542244 146.129362,16.7586565 146.286809,16.2126316 L146.286809,16.2126316 Z M146.451348,13.3045014 C146.43078,12.4716898 146.215177,11.8387812 145.80383,11.4050693 C145.392482,10.9720637 144.892482,10.7552078 144.303121,10.7552078 C143.672624,10.7552078 143.151348,10.984072 142.740709,11.4410942 C142.329362,11.8988227 142.127234,12.519723 142.134326,13.3045014 L146.451348,13.3045014 Z" id="Fill-54" fill="#333333" mask="url(#mask-2)"></path>
                    <path d="M161.60383,19.673144 L158.715177,19.673144 L158.715177,14.123892 C158.715177,12.949903 158.653475,12.190554 158.530071,11.8458449 C158.406667,11.5011357 158.206667,11.2327147 157.928652,11.0419945 C157.651348,10.8505679 157.317305,10.7552078 156.926525,10.7552078 C156.426525,10.7552078 155.977589,10.8915374 155.579716,11.164903 C155.182553,11.4375623 154.910213,11.7992244 154.762695,12.2498892 C154.615177,12.700554 154.541418,13.5333657 154.541418,14.7483241 L154.541418,19.673144 L151.652766,19.673144 L151.652766,8.7999723 L154.335745,8.7999723 L154.335745,10.3970776 C155.288936,9.16799169 156.488227,8.55415512 157.933617,8.55415512 C158.571206,8.55415512 159.153475,8.66858726 159.681135,8.89674515 C160.209504,9.12560942 160.608085,9.41734072 160.879007,9.77264543 C161.149929,10.1272438 161.337872,10.5298753 161.444255,10.9805402 C161.550638,11.431205 161.60383,12.0761219 161.60383,12.9152909 L161.60383,19.673144 Z" id="Fill-55" fill="#333333" mask="url(#mask-2)"></path>
                    <path d="M169.54,8.7999723 L169.54,11.0928532 L167.566241,11.0928532 L167.566241,15.4751801 C167.566241,16.3623823 167.584681,16.879446 167.62227,17.0263712 C167.660567,17.1732964 167.745674,17.2940859 167.879716,17.389446 C168.01305,17.4855125 168.17617,17.5328393 168.36766,17.5328393 C168.635035,17.5328393 169.02227,17.4410111 169.529362,17.2566482 L169.77617,19.4887812 C169.104539,19.7755679 168.343546,19.9182548 167.493901,19.9182548 C166.973333,19.9182548 166.50383,19.8313712 166.086099,19.6576039 C165.66766,19.4831302 165.361277,19.2585042 165.165532,18.9816066 C164.970496,18.7054155 164.835035,18.3317452 164.759858,17.8605956 C164.698156,17.526482 164.66695,16.8504848 164.66695,15.8333102 L164.66695,11.0928532 L163.340709,11.0928532 L163.340709,8.7999723 L164.66695,8.7999723 L164.66695,6.63918283 L167.566241,4.9601385 L167.566241,8.7999723 L169.54,8.7999723 Z" id="Fill-56" fill="#333333" mask="url(#mask-2)"></path>
                    <path d="M187.405957,19.673144 L184.722979,19.673144 L184.722979,18.0760388 C184.277589,18.6969391 183.751348,19.1589058 183.144965,19.4626454 C182.538582,19.766385 181.926525,19.9182548 181.310213,19.9182548 C180.055603,19.9182548 178.981844,19.4153186 178.087518,18.4087396 C177.193191,17.4014543 176.745674,15.9971884 176.745674,14.1952355 C176.745674,12.352313 177.181135,10.9515789 178.051348,9.99232687 C178.92156,9.03378116 180.02156,8.55415512 181.351348,8.55415512 C182.571206,8.55415512 183.626525,9.05921053 184.517305,10.0693213 L184.517305,4.6634626 L187.405957,4.6634626 L187.405957,19.673144 Z M179.696028,14.0009834 C179.696028,15.1608449 179.857021,16.0007202 180.179007,16.5191967 C180.644965,17.2700693 181.296028,17.6458587 182.132199,17.6458587 C182.797447,17.6458587 183.362695,17.3640166 183.828652,16.8010388 C184.29461,16.2380609 184.527234,15.3967729 184.527234,14.2771745 C184.527234,13.0283102 184.301702,12.1290997 183.84922,11.5795429 C183.396738,11.0299861 182.818014,10.7552078 182.111631,10.7552078 C181.426525,10.7552078 180.852766,11.0264543 180.389645,11.5689474 C179.927234,12.1121468 179.696028,12.9223546 179.696028,14.0009834 L179.696028,14.0009834 Z" id="Fill-57" fill="#333333" mask="url(#mask-2)"></path>
                    <path d="M196.575461,16.2126316 L199.453475,16.6936704 C199.083972,17.7447507 198.499574,18.5450693 197.700993,19.094626 C196.902411,19.6441828 195.90383,19.9182548 194.704539,19.9182548 C192.805957,19.9182548 191.400993,19.3008864 190.489645,18.0654432 C189.770496,17.0758172 189.410213,15.8269529 189.410213,14.318144 C189.410213,12.5161911 189.883262,11.1048615 190.829362,10.0848615 C191.774752,9.06415512 192.970496,8.55415512 194.416596,8.55415512 C196.040709,8.55415512 197.32227,9.08817175 198.261277,10.156205 C199.200284,11.2242382 199.64922,12.8609003 199.608085,15.0654848 L192.371206,15.0654848 C192.391773,15.9187812 192.624397,16.5827701 193.069787,17.0567452 C193.515177,17.5314266 194.070496,17.7687673 194.735035,17.7687673 C195.187518,17.7687673 195.56766,17.6458587 195.87617,17.4000416 C196.184681,17.1542244 196.418014,16.7586565 196.575461,16.2126316 L196.575461,16.2126316 Z M196.74,13.3045014 C196.719433,12.4716898 196.503121,11.8387812 196.092482,11.4050693 C195.681135,10.9720637 195.181135,10.7552078 194.591064,10.7552078 C193.961277,10.7552078 193.44,10.984072 193.028652,11.4410942 C192.618014,11.8988227 192.415887,12.519723 192.42227,13.3045014 L196.74,13.3045014 Z" id="Fill-58" fill="#333333" mask="url(#mask-2)"></path>
                    <path d="M11.2116312,37.049169 C3.9258156,33.6176177 -0.731631206,25.5600416 0.0946099291,7.82871191 L0.0981560284,7.82871191 C3.08680851,5.63613573 7.16056738,4.6415651 11.1719149,4.6634626 L11.1775887,4.6634626 C15.1889362,4.6415651 19.2634043,5.63613573 22.2513475,7.82871191 L22.2548936,7.82871191 C23.081844,25.5600416 18.4974468,33.6169114 11.2116312,37.049169 L11.2116312,37.049169 Z M0.393191489,8.01590028 C-0.366382979,25.2209834 4.16056738,33.2284072 11.2116312,36.5893213 C18.2634043,33.2284072 22.7165957,25.2209834 21.9563121,8.01590028 L21.952766,8.01590028 C19.0442553,5.88195291 15.0790071,4.91422438 11.1747518,4.93612188 C7.27049645,4.91422438 3.30524823,5.88195291 0.397446809,8.01590028 L0.393191489,8.01590028 Z" id="Fill-59" fill="#333333" mask="url(#mask-2)"></path>
                    <path d="M11.2116312,35.500097 C6.90737589,33.448795 3.54496454,29.5404432 1.99673759,22.577036 L20.2634043,22.577036 C18.7151773,29.5376177 15.5151773,33.4495014 11.2116312,35.500097" id="Fill-60" fill="#333333" mask="url(#mask-2)"></path>
                    <path d="M13.9329078,33.3866343 C13.4095035,33.7977424 12.8556028,34.1707064 12.2839716,34.4998753 M12.2839716,34.4998753 L12.2839716,22.8609972 L13.9329078,22.8609972 L13.9329078,33.3866343" id="Fill-61" fill="#333333" mask="url(#mask-2)"></path>
                    <path d="M9.95843972,34.4101662 L9.95843972,22.8609972 L8.30950355,22.8609972 L8.30950355,33.2771468 M8.30950355,33.2771468 C8.84141844,33.7016759 9.38539007,34.0739335 9.95843972,34.4101662" id="Fill-62" fill="#333333" mask="url(#mask-2)"></path>
                    <path d="M4.37900709,28.4236704 L4.37900709,22.8609972 L6.02723404,22.8609972 L6.02723404,30.9694321 C5.4329078,30.2178532 4.86765957,29.349723 4.37900709,28.4236704" id="Fill-63" fill="#333333" mask="url(#mask-2)"></path>
                    <path d="M16.2371631,31.0746814 L16.2371631,22.8609972 L17.8853901,22.8609972 L17.8853901,28.4936011 C17.3924823,29.4472022 16.8371631,30.3125069 16.2371631,31.0746814" id="Fill-64" fill="#333333" mask="url(#mask-2)"></path>
                    <path d="M10.3208511,34.6037119 L10.3208511,22.8609972 L11.9697872,22.8609972 L11.9697872,34.6757618 C11.7222695,34.8099723 11.4669504,34.9385319 11.2116312,35.058615 C10.9130496,34.9180471 10.610922,34.7640582 10.3208511,34.6037119" id="Fill-65" fill="#FFFFFF" mask="url(#mask-2)"></path>
                    <path d="M8.00382979,33.0087258 C7.43503546,32.5248615 6.85985816,31.9590582 6.35489362,31.3685319 L6.35489362,22.8609972 L8.00382979,22.8609972 L8.00382979,33.0087258 Z" id="Fill-66" fill="#FFFFFF" mask="url(#mask-2)"></path>
                    <path d="M14.2605674,33.119626 L14.2605674,22.8609972 L15.9087943,22.8609972 L15.9087943,31.4766066 C15.3974468,32.0784349 14.8392908,32.634349 14.2605674,33.119626" id="Fill-67" fill="#FFFFFF" mask="url(#mask-2)"></path>
                    <path d="M4.0470922,27.7596814 C3.36978723,26.3109141 2.8222695,24.7681994 2.39886525,22.8609972 L4.0470922,22.8609972 L4.0470922,27.7596814 Z" id="Fill-68" fill="#FFFFFF" mask="url(#mask-2)"></path>
                    <path d="M19.8619858,22.8609972 L18.2130496,22.8609972 L18.2130496,27.8260803 C18.8797163,26.3907341 19.4329078,24.7561911 19.8619858,22.8609972" id="Fill-69" fill="#FFFFFF" mask="url(#mask-2)"></path>
                    <path d="M21.2151773,8.99987535 C21.4421277,14.1344875 21.1676596,18.3861357 20.4726241,21.9010388 L1.87758865,21.9010388 C1.18397163,18.3875485 0.908794326,14.1309557 1.13574468,8.99987535 L1.13929078,8.99987535 C3.8470922,7.01214681 7.54,6.11152355 11.175461,6.13130194 C14.810922,6.11152355 18.5031206,7.01214681 21.2116312,8.99987535 L21.2151773,8.99987535 Z M1.40666667,9.25911357 C1.18964539,14.1768698 1.4364539,18.2194321 2.08893617,21.6078947 L20.2612766,21.6078947 C20.910922,18.2236704 21.1605674,14.1648615 20.9442553,9.25911357 L20.9407092,9.25911357 C18.3059574,7.32506925 14.7130496,6.4484626 11.175461,6.468241 C7.63787234,6.4484626 4.04496454,7.32506925 1.41021277,9.25911357 L1.40666667,9.25911357 Z" id="Fill-70" fill="#333333" mask="url(#mask-2)"></path>
                    <path d="M13.2321986,15.0322853 C13.1073759,15.1410665 13.3243972,15.2018144 13.2321986,15.3261357 C13.1307801,15.480831 13.0683688,15.6736704 12.9208511,15.7895152 C12.9208511,15.5726593 12.9988652,15.4497507 12.952766,15.3649861 C13.0534752,15.2639751 13.0456738,14.9475208 13.2321986,15.0322853 L13.2321986,15.0322853 Z M8.21943262,14.9242105 C8.14141844,15.1474238 7.78468085,15.3331994 7.73858156,15.4109003 C7.81588652,15.2180609 8.0329078,15.001205 8.21943262,14.9242105 L8.21943262,14.9242105 Z M15.0314894,14.970831 C14.9541844,15.039349 14.7293617,15.0859695 14.6591489,15.1396537 C14.7066667,15.0322853 14.7839716,14.9086704 14.9080851,14.8620499 L15.0314894,14.970831 Z M15.8470922,14.3901939 C15.7839716,14.4834349 15.6832624,14.5681994 15.5740426,14.6451939 C15.4506383,14.5915097 15.3733333,14.5759695 15.3428369,14.5759695 C15.2953191,14.4763712 15.4584397,14.5222853 15.4896454,14.4219806 C15.6052482,14.4601247 15.7456738,14.3131994 15.8470922,14.3901939 L15.8470922,14.3901939 Z M16.3201418,13.85759 C16.1726241,13.9268144 16.0243972,14.1740443 15.862695,14.0504294 C15.8697872,13.9345845 16.0726241,13.8342798 16.1726241,13.7339751 C16.1960284,13.7954294 16.3747518,13.726205 16.3201418,13.85759 L16.3201418,13.85759 Z M17.1577305,13.0615097 L16.9329078,13.2472853 C16.7307801,13.0763435 17.0655319,12.8990443 17.1662411,12.744349 C17.2669504,12.8757341 17.1350355,12.9449584 17.1577305,13.0615097 L17.1577305,13.0615097 Z M18.2371631,10.5877978 C18.2215603,10.6888089 17.9499291,10.8201939 18.1825532,10.9438089 C17.9350355,11.2609695 17.74,11.5781302 17.3747518,11.8394875 C17.5612766,11.8945845 17.6470922,11.7935734 17.7634043,11.6784349 C17.5229787,12.0711773 17.2974468,12.3742105 17.010922,12.6673546 C16.8548936,12.7365789 16.7236879,13.0155956 16.5761702,13.1307341 C16.3974468,13.2628255 16.288227,13.4860388 16.0719149,13.4945152 C15.9087943,13.6944183 15.6910638,13.9035042 15.4896454,13.9967452 C15.2563121,14.3131994 15.0548936,14.4452909 14.9392908,14.6388366 C14.8683688,14.6218837 14.7910638,14.5526593 14.7449645,14.5992798 C14.6442553,14.7998892 14.4889362,14.8620499 14.3485106,14.9475208 C14.333617,15.0478255 14.2017021,15.0167452 14.1385816,15.0796122 C13.8988652,15.3805263 13.6499291,15.5345152 13.3712057,15.7202909 C13.1846809,15.7739751 13.0839716,15.9053601 12.9052482,15.9590443 C12.8442553,16.1759003 12.6343262,15.8982964 12.5719149,16.1532964 C12.4087943,16.1532964 12.362695,16.339072 12.1761702,16.3221191 C11.9740426,16.3539058 11.8967376,16.5474515 11.7414184,16.6322161 C11.5797163,16.624446 11.5797163,16.8405956 11.4080851,16.7628947 C11.3229787,16.9098199 11.1442553,16.7706648 11.0889362,16.9098199 C10.9506383,16.9027562 10.8038298,17.0115374 10.6634043,17.0115374 C10.5307801,17.1415097 10.3612766,17.1415097 10.1974468,17.1577562 C9.97262411,17.0955956 9.87262411,17.4127562 9.66269504,17.3357618 C9.53007092,17.3435319 9.49957447,17.4445429 9.39035461,17.4904571 C9.26624113,17.2347507 9.08751773,17.5674515 8.92439716,17.482687 C8.81588652,17.5363712 8.70028369,17.6677562 8.58326241,17.5907618 C8.39744681,17.6133657 8.20382979,17.7680609 7.99319149,17.7299169 C7.93929078,17.8146814 7.83858156,17.6981302 7.78397163,17.7843075 C7.47333333,17.9849169 7.09390071,18.0852216 6.81375887,18.1163019 C7.14,17.8839058 7.42723404,17.6592798 7.68326241,17.3435319 C7.71375887,17.4982271 7.84638298,17.3505956 7.95489362,17.3972161 C8.18751773,17.4664404 8.19460993,17.2347507 8.3506383,17.1655263 C8.46765957,17.17259 8.51375887,17.2114404 8.57617021,17.1803601 C8.68397163,17.0729917 8.72368794,16.91759 8.85489362,16.8328255 C8.84,16.9564404 8.73858156,17.0955956 8.65347518,17.2192105 C9.1187234,16.9260665 9.28184397,16.6322161 9.51446809,16.4082964 C9.68609929,16.5771191 9.22014184,16.6859003 9.50737589,16.8568421 C9.80950355,16.5855956 10.0733333,16.2839751 10.2747518,15.9364404 C10.2598582,16.2140443 10.0343262,16.4697507 9.87971631,16.6859003 C10.391773,16.3616759 10.6556028,15.9364404 10.9967376,15.5189751 C10.910922,15.5881994 10.9584397,15.7739751 10.8960284,15.8749861 C10.7258156,16.1066759 10.5782979,16.3616759 10.3995745,16.5707618 C10.7556028,16.339072 10.9655319,16.059349 11.2293617,15.8523823 C11.3307801,15.7436011 11.3697872,15.5578255 11.5165957,15.5189751 C11.6180142,15.4652909 11.6095035,15.3176593 11.7180142,15.3105956 C11.6797163,15.4186704 11.6258156,15.5655956 11.6953191,15.6666066 C11.9591489,15.480831 12.1066667,15.1566066 12.3158865,14.9319806 C12.2378723,15.225831 12.4165957,15.4497507 12.2534752,15.5959695 L12.9513475,14.8309695 C12.898156,14.7539751 12.9222695,14.6388366 13.0286525,14.6218837 C13.0066667,14.6995845 13.069078,14.7998892 13.1378723,14.8465097 C13.2087943,14.8309695 13.262695,14.8698199 13.34,14.8076593 L13.5499291,14.4678947 C13.6116312,14.5922161 13.262695,14.7998892 13.5421277,14.7850554 C13.6577305,14.6070499 13.7903546,14.5222853 13.8676596,14.3131994 C13.9307801,14.2750554 14.0151773,14.2983657 14.0775887,14.2213712 C14.046383,14.2898892 13.9846809,14.3520499 13.9846809,14.4297507 C14.0307801,14.5611357 14.1236879,14.4219806 14.1697872,14.4071468 C14.3485106,14.0348892 14.698156,13.8964404 14.8846809,13.5100554 C14.9853901,13.5178255 14.946383,13.3935042 15.0314894,13.3624238 L15.2024113,13.2931994 C15.2180142,13.4486011 15.3740426,13.3016759 15.4201418,13.2783657 C15.5052482,13.3165097 15.3187234,13.5637396 15.5357447,13.4945152 C15.7222695,13.3165097 15.7612766,13.0389058 15.9782979,12.8446537 C16.2187234,12.83759 16.1804255,12.5748199 16.3435461,12.5048892 L16.569078,12.3198199 C16.8321986,12.0026593 17.0187234,11.6854986 17.227234,11.3768144 C17.3137589,11.4304986 17.4293617,11.4467452 17.5073759,11.3768144 L17.8485106,10.7509695 C18.0123404,10.7813435 18.0733333,10.6273546 18.1676596,10.5192798 L18.2371631,10.5877978 Z M9.77829787,17.7454571 C9.62297872,17.8069114 9.63787234,17.8761357 9.60808511,17.9142798 C9.12652482,17.93759 8.64567376,18.2547507 8.11801418,18.0463712 C8.2577305,17.8916759 8.47404255,17.93759 8.60666667,17.7913712 C8.72368794,17.8761357 8.82439716,17.7059003 8.94,17.7913712 C9.0648227,17.8916759 9.18113475,17.6903601 9.31304965,17.7680609 C9.48326241,17.6903601 9.70879433,17.6366759 9.87191489,17.4904571 C9.87191489,17.6366759 9.63787234,17.6133657 9.77829787,17.7454571 L9.77829787,17.7454571 Z M11.2605674,17.1655263 C11.2683688,17.3350554 11.0825532,17.3350554 11.0676596,17.482687 C10.927234,17.5667452 10.7407092,17.4600831 10.6321986,17.644446 C10.5541844,17.5123546 10.4612766,17.7221468 10.3761702,17.6832964 C10.391773,17.5752216 10.2598582,17.5829917 10.2832624,17.4742105 C10.4995745,17.5596814 10.6165957,17.2340443 10.7563121,17.3350554 C10.8726241,17.3124515 10.9811348,17.2114404 11.0747518,17.2813712 C11.1364539,17.2573546 11.175461,17.1570499 11.2605674,17.1655263 L11.2605674,17.1655263 Z M12.0598582,16.7869114 C12.0208511,16.8413019 11.9279433,16.8716759 11.9669504,16.9564404 C11.8584397,17.0270776 12.0052482,17.0729917 11.981844,17.1732964 C11.804539,17.3124515 11.6953191,17.3279917 11.633617,17.3202216 C11.633617,17.2418144 11.827234,17.2036704 11.7031206,17.1111357 C11.5634043,17.1189058 11.4853901,17.0101247 11.4236879,17.0729917 L11.981844,16.7720776 L12.0598582,16.7869114 Z M12.7506383,16.6089058 L12.9364539,16.569349 C12.781844,16.6399861 12.6499291,16.8010388 12.5414184,16.7092105 C12.4860993,16.4309003 12.5414184,16.6399861 12.6187234,16.5474515 L12.7506383,16.6089058 Z M13.7442553,15.9519806 C13.7591489,16.2380609 13.4102128,16.1914404 13.24,16.2917452 C13.2087943,16.1914404 13.0605674,16.1299861 13.1619858,16.0671191 C13.3321986,16.114446 13.4407092,15.9209003 13.5967376,15.8898199 L13.7442553,15.9519806 Z M14.6598582,15.4342105 C14.5733333,15.5189751 14.4811348,15.6199861 14.3407092,15.6510665 C14.2485106,15.5345152 14.1314894,15.766205 14.0236879,15.6355263 C14.1158865,15.5422853 14.1470922,15.3805263 14.2712057,15.3572161 C14.4116312,15.5500554 14.5733333,15.2173546 14.6598582,15.4342105 L14.6598582,15.4342105 Z M5.20028369,14.8542798 C5.1541844,15.001205 5.40241135,14.8938366 5.31588652,15.0548892 C5.48751773,15.0781994 5.51021277,15.1551939 5.57262411,15.1318837 C6.18609929,15.2018144 6.7364539,15.3487396 7.26411348,15.5500554 C7.06269504,15.6588366 7.26411348,15.8135319 7.05489362,15.9053601 C6.0612766,15.5578255 5.1541844,15.225831 4.15985816,14.9001939 C4.23787234,14.7772853 4.40170213,14.7228947 4.5329078,14.6374238 L5.20028369,14.8542798 Z M12.1839716,14.8005956 C12.1378723,14.8401524 12.0832624,14.8401524 12.0208511,14.8005956 C11.8740426,14.746205 11.8357447,14.8691136 11.7733333,14.9164404 C11.6641135,14.8465097 11.6180142,14.6769806 11.5634043,14.5533657 C11.7733333,14.6148199 12.0520567,14.6303601 12.1839716,14.8005956 L12.1839716,14.8005956 Z M11.0662411,15.1092798 C11.0123404,15.2328947 10.9350355,15.4264404 10.788227,15.4878947 C10.7641135,15.5500554 10.7407092,15.5959695 10.6868085,15.64259 C10.5860993,15.6355263 10.6321986,15.511205 10.5314894,15.4878947 L8.87049645,14.9397507 C8.87049645,14.8465097 8.93361702,14.7850554 8.97971631,14.7151247 C9.16624113,14.8542798 9.22794326,14.6374238 9.32794326,14.5371191 L11.0662411,15.1092798 Z M7.58255319,14.8387396 C7.67546099,15.0089751 7.40382979,15.1255263 7.41943262,15.3028255 C6.94638298,15.1332964 6.39531915,14.9856648 5.94496454,14.7850554 L6.03007092,14.6148199 C6.34141844,14.7765789 6.21659574,14.5067452 6.30950355,14.4135042 C6.72085106,14.5448892 7.15560284,14.6699169 7.58255319,14.8387396 L7.58255319,14.8387396 Z M12.8669504,14.36759 L12.688227,14.652964 C12.6031206,14.5222853 12.6648227,14.3520499 12.6960284,14.2284349 C12.7896454,14.2136011 12.9130496,14.2672853 12.8669504,14.36759 L12.8669504,14.36759 Z M5.26198582,14.0504294 C4.67333333,14.2439751 4.29957447,14.6296537 3.74992908,14.8083657 L4.40028369,15.1792105 L8.59106383,16.6477562 C6.81375887,16.2295845 5.13007092,15.574072 3.43078014,15.001205 L5.16978723,14.0200554 L5.26198582,14.0504294 Z M11.1059574,14.7772853 C10.8499291,14.6543767 10.5307801,14.6070499 10.2364539,14.5300554 C10.0038298,14.4375208 9.80950355,14.36759 9.66269504,14.2983657 C9.9187234,13.7177285 10.4768794,14.2821191 10.8726241,14.2983657 L11.1059574,14.7772853 Z M8.05631206,14.11259 C7.97900709,14.2121884 8.14851064,14.3591136 7.98680851,14.4135042 C8.02510638,14.5300554 7.92368794,14.5371191 7.86978723,14.6141136 C7.44992908,14.491205 7.08680851,14.3591136 6.68255319,14.1980609 C6.68255319,14.0504294 6.77617021,13.8886704 6.79957447,13.7177285 L8.05631206,14.11259 Z M12.5641135,14.1740443 C12.5641135,14.2665789 12.5258156,14.397964 12.4321986,14.4834349 C11.9513475,14.3139058 11.2910638,14.3598199 11.0584397,13.7961357 C11.0584397,13.671108 11.2371631,13.7099584 11.2910638,13.7572853 L12.5641135,14.1740443 Z M13.0534752,14.0659695 C12.8825532,14.1351939 12.7740426,13.9494183 12.6031206,13.9494183 L11.3080851,13.4945152 C11.904539,13.6562742 12.4782979,13.8491136 13.0534752,14.0659695 L13.0534752,14.0659695 Z M10.5939007,13.8801939 C10.446383,13.8801939 10.2513475,13.8031994 10.0960284,13.7495152 C10.0733333,13.6485042 10.1279433,13.5022853 10.1903546,13.3935042 C10.3520567,13.5255956 10.4775887,13.726205 10.5939007,13.8801939 L10.5939007,13.8801939 Z M5.91446809,13.8957341 C5.82794326,13.9586011 5.75914894,14.1048199 5.69673759,14.1902909 C5.57262411,14.3598199 5.61234043,14.5604294 5.44851064,14.5145152 C5.38680851,14.3824238 5.5258156,14.2284349 5.51092199,14.1048199 C5.60312057,14.0815097 5.54921986,13.9819114 5.54921986,13.9190443 C5.75914894,13.8187396 5.68113475,13.5411357 5.89106383,13.4471884 L6.24,13.3398199 C6.19319149,13.5326593 6.02297872,13.695831 5.91446809,13.8957341 L5.91446809,13.8957341 Z M8.51375887,13.5715097 C8.40453901,13.6485042 8.34283688,13.7572853 8.30382979,13.8801939 L7.17120567,13.4563712 L7.24851064,13.1385042 C7.68326241,13.2472853 8.10241135,13.4012742 8.51375887,13.5715097 L8.51375887,13.5715097 Z M9.2435461,13.0692798 C9.1506383,13.1314404 8.97191489,13.2154986 8.90099291,13.3398199 C8.5293617,13.2310388 8.10241135,13.1385042 7.78397163,12.9604986 C8.27333333,12.7224515 8.7541844,12.8524238 9.2435461,13.0692798 L9.2435461,13.0692798 Z M6.81375887,12.9223546 C6.9151773,12.9223546 6.89177305,13.0459695 6.87687943,13.1081302 C6.75985816,13.1851247 6.69035461,13.3320499 6.70524823,13.4401247 C6.57404255,13.5008726 6.65914894,13.764349 6.50382979,13.8109695 C6.40312057,13.9035042 6.4648227,13.6640443 6.3258156,13.7495152 C6.24,13.8957341 6.20170213,14.0666759 6.13929078,14.2284349 C5.96056738,14.3442798 5.94567376,14.5759695 5.79035461,14.5455956 C6.0151773,13.9190443 6.57404255,13.377964 6.84567376,12.7132687 C6.83787234,12.7831994 6.77475177,12.8531302 6.81375887,12.9223546 L6.81375887,12.9223546 Z M9.53007092,12.9068144 C9.13361702,12.8524238 8.80879433,12.6977285 8.41234043,12.5670499 C8.23361702,12.4971191 8.08680851,12.4201247 7.88539007,12.5599861 L8.11021277,12.4278947 C8.59886525,12.5599861 9.05631206,12.7598892 9.53007092,12.9068144 L9.53007092,12.9068144 Z M7.13219858,12.0252632 C6.85347518,12.3735042 6.52014184,12.7288089 6.33361702,13.1695845 C6.18609929,13.0000554 5.95347518,13.3546537 5.75843972,13.2854294 C5.58042553,13.2388089 5.6506383,13.0848199 5.72014184,13.0078255 C5.85276596,12.9068144 6.0612766,12.8912742 6.15489362,12.744349 C6.04567376,12.6207341 6.01446809,12.7521191 5.87617021,12.6899584 C5.9222695,12.4900554 6.16269504,12.2965097 6.37971631,12.2188089 C6.41092199,12.141108 6.4187234,12.0252632 6.52014184,12.0252632 C6.72085106,12.1114404 6.97687943,11.9482687 7.13219858,12.0252632 L7.13219858,12.0252632 Z M7.58255319,11.6854986 C7.55985816,11.8557341 7.47333333,12.0803601 7.41943262,12.2816759 C7.28042553,12.3890443 7.05489362,12.4356648 7.14,12.7132687 C6.8612766,12.6906648 7.15560284,12.4504986 7.14,12.2498892 C7.22652482,12.1036704 7.40382979,11.9871191 7.4506383,11.8317175 C7.38113475,11.6939751 7.48113475,11.6395845 7.58255319,11.6854986 L7.58255319,11.6854986 Z M12.0130496,11.4615789 C11.904539,11.5308033 11.7889362,11.6932687 11.6407092,11.6395845 C11.5946099,11.3697507 11.7648227,11.1528947 11.7414184,10.9127285 C11.4619858,11.4538089 11.4080851,12.0951939 11.0903546,12.5670499 C11.0357447,12.7987396 10.9499291,13.0155956 10.9194326,13.2472853 C10.8343262,13.0770499 10.8726241,12.8842105 10.7946099,12.706205 C10.8407092,12.5211357 10.8889362,12.3198199 10.7719149,12.1340443 C10.9350355,11.8945845 10.9811348,11.7787396 10.9889362,11.6628947 C10.9889362,11.5936704 10.9662411,11.4848892 11.0825532,11.4764127 C11.1988652,11.3217175 11.0676596,10.9056648 11.346383,10.989723 C11.4619858,10.8823546 11.5009929,10.704349 11.5329078,10.5489474 C11.9669504,10.6888089 11.7414184,10.1095845 12.0988652,10.1095845 C12.1222695,10.0241136 12.1293617,9.90120499 12.2314894,9.92451524 C12.2839716,10.0241136 12.3470922,9.90120499 12.4009929,9.88425208 C12.4009929,9.70765928 12.5953191,9.69847645 12.7194326,9.66033241 C12.6570213,9.7465097 12.704539,9.82350416 12.7194326,9.92451524 C12.804539,9.83833795 12.9130496,9.9548892 12.9995745,9.83833795 C13.1456738,9.81573407 13.317305,9.72319945 13.4251064,9.65256233 L12.0130496,11.4615789 Z M14.6201418,18.1233657 C14.2095035,18.6270083 13.6116312,18.0463712 13.091773,17.9609003 L12.704539,17.7991413 L12.6265248,17.4360665 C13.3017021,17.6366759 13.969078,17.8683657 14.6201418,18.1233657 L14.6201418,18.1233657 Z M15.7378723,17.5978255 L15.0868085,17.9220499 C14.2790071,17.6670499 13.4329078,17.3739058 12.6343262,17.0652216 C12.8286525,16.9486704 13.1073759,16.9253601 13.2860993,16.7784349 C14.1158865,17.0263712 14.9470922,17.2813712 15.7378723,17.5978255 L15.7378723,17.5978255 Z M19.0669504,17.2347507 L18.8740426,17.2269806 L18.9123404,16.5156648 C18.981844,16.5015374 19.0357447,16.4464404 19.1066667,16.4386704 L19.0669504,17.2347507 Z M16.8095035,17.1033657 L16.1648227,17.389446 C15.3031206,17.1577562 14.4811348,16.8024515 13.6194326,16.5389751 C13.5960284,16.3927562 13.8598582,16.4542105 13.8137589,16.2839751 L14.0924823,16.1377562 L16.8243972,17.0496814 L16.8095035,17.1033657 Z M17.7790071,16.6089058 C17.5612766,16.6943767 17.3286525,16.9868144 17.0492199,16.7869114 C16.2038298,16.4852909 15.3967376,16.2684349 14.5584397,15.9216066 L14.8768794,15.6588366 C15.862695,15.952687 16.8329078,16.2536011 17.7790071,16.6089058 L17.7790071,16.6089058 Z M7.57475177,15.8361357 C8.18751773,15.8516759 8.65276596,16.0056648 9.10312057,16.1766066 C8.96411348,16.2536011 8.89390071,16.5863019 8.72368794,16.4775208 L7.18680851,15.9216066 L7.55205674,15.5578255 C7.60595745,15.6736704 7.31092199,15.7965789 7.57475177,15.8361357 L7.57475177,15.8361357 Z M3.42297872,15.9131302 C3.3222695,15.6969806 3.29106383,15.4186704 3.36056738,15.2095845 L3.42297872,15.9131302 Z M10.1279433,15.735831 C10.1038298,15.859446 9.99602837,16.0522853 9.84921986,16.0989058 C9.82510638,16.0056648 9.75489362,16.0056648 9.68539007,15.9823546 C9.53787234,15.9364404 9.5222695,15.8982964 9.43787234,16.0056648 C8.95631206,15.859446 8.48326241,15.6892105 8.0329078,15.4886011 L8.3506383,15.1255263 C8.95631206,15.3028255 9.54567376,15.5189751 10.1279433,15.735831 L10.1279433,15.735831 Z M18.6009929,16.1914404 C18.4853901,16.3313019 18.3293617,16.3772161 18.1435461,16.4316066 C17.1116312,16.0445152 16.133617,15.7817452 15.1251064,15.4186704 C15.0314894,15.3261357 15.310922,15.256205 15.1641135,15.1551939 C16.4364539,15.3960665 17.5002837,15.8276593 18.6009929,16.1914404 L18.6009929,16.1914404 Z M19.1839716,16.1610665 C17.6775887,16.9182964 15.8151773,17.8457618 14.1860993,18.6566759 C13.7435461,18.4567729 13.1612766,18.3868421 12.7974468,18.1311357 C13.3087943,18.2017729 13.7903546,18.3705956 14.2797163,18.5641413 C15.7995745,17.7687673 17.375461,17.0263712 18.9194326,16.2528947 C18.9662411,16.2147507 18.9662411,16.1377562 18.9357447,16.0918421 C17.9180142,15.7739751 16.9095035,15.4109003 15.9321986,15.0704294 C17.0251064,15.4031302 18.104539,15.7739751 19.1839716,16.1610665 L19.1839716,16.1610665 Z M15.3428369,9.56779778 C15.1329078,9.71401662 14.9229787,9.93157895 14.6520567,9.96265928 C14.5506383,9.83904432 14.7449645,9.78465374 14.7839716,9.66810249 C14.5662411,9.45265928 14.3733333,9.80796399 14.1314894,9.88495845 C14.2407092,9.78465374 14.1392908,9.67587258 14.1697872,9.62218837 C13.9307801,9.65397507 13.775461,9.62995845 13.681844,9.66033241 C13.3017021,10.0940443 12.9995745,10.572964 12.5953191,10.9904294 C13.1924823,10.8738781 13.5889362,10.603338 14.1236879,10.4564127 C14.0924823,10.5574238 14.2478014,10.611108 14.1236879,10.6647922 L12.6265248,11.2531994 C12.5797163,11.3309003 12.510922,11.3372576 12.4556028,11.4078947 C12.7187234,11.5689474 13.0066667,11.2602632 13.2939007,11.4001247 C12.688227,11.6777285 12.1378723,11.4538089 11.6953191,11.941205 L11.5009929,12.1418144 C11.346383,12.5515097 11.0747518,12.9223546 11.0428369,13.3864404 C11.1910638,13.3553601 11.2605674,13.1851247 11.3619858,13.0841136 C11.5165957,12.7909695 11.7492199,12.8142798 11.9506383,12.6673546 C11.9357447,12.6285042 11.8967376,12.519723 11.981844,12.5366759 C12.0598582,12.5366759 12.1456738,12.5515097 12.191773,12.4660388 L11.8584397,12.4278947 C12.2619858,12.2816759 12.7265248,12.4504986 12.9903546,12.2110388 C13.3868085,12.0266759 13.7279433,11.7858033 14.1556028,11.686205 C14.1392908,11.5618837 14.2407092,11.4615789 14.3180142,11.3831717 C14.2563121,11.2065789 14.4577305,11.3061773 14.5279433,11.1684349 C14.6364539,11.1988089 14.6676596,11.0992105 14.7215603,11.0596537 C14.6676596,10.7813435 14.5116312,10.9904294 14.3485106,10.959349 C14.1939007,10.8675208 14.3641135,10.8427978 14.4577305,10.8124238 C14.5811348,10.6888089 14.9775887,10.7276593 14.8846809,10.449349 C14.962695,10.3956648 15.1407092,10.3405679 15.0314894,10.2098892 C15.0548936,9.89979224 15.4201418,9.93157895 15.4513475,9.62218837 L15.3428369,9.56779778 Z M14.2251064,18.8961357 C14.24,19.1751524 14.1790071,19.4379224 14.1392908,19.7155263 L14.0612766,19.0663712 L14.2017021,18.8961357 L14.2251064,18.8961357 Z M7.88539007,11.0518837 C7.83078014,10.9826593 7.74496454,10.8823546 7.80737589,10.827964 C7.78468085,10.9289751 7.93929078,10.9438089 7.88539007,11.0518837 L7.88539007,11.0518837 Z M7.92368794,10.3871884 C8.05631206,10.572964 7.68326241,10.6047507 7.83148936,10.7735734 C7.62156028,10.6337119 7.8612766,10.449349 7.70595745,10.2720499 L7.74496454,9.97819945 C7.69886525,10.1703324 8.05631206,10.1950554 7.92368794,10.3871884 L7.92368794,10.3871884 Z M6.18609929,9.05073407 C6.34141844,9.25911357 6.48822695,9.49927978 6.4187234,9.76911357 C6.38751773,9.96265928 6.18609929,10.0396537 6.20099291,10.2558033 C6.25489362,10.062964 6.3258156,9.91533241 6.34921986,9.76911357 C6.3258156,9.68364266 6.3258156,9.58333795 6.27120567,9.50634349 C6.0222695,9.54519391 6.31730496,9.90120499 6.03007092,9.97819945 C5.93787234,9.99303324 5.85276596,9.96972299 5.78964539,9.90897507 C5.87546099,9.69141274 5.61943262,9.48303324 5.5187234,9.28242382 C5.50241135,9.21955679 5.46411348,9.18141274 5.47971631,9.11218837 C5.54141844,9.08110803 5.59673759,9.02742382 5.66624113,9.03519391 L5.8435461,9.49927978 C5.96836879,9.28242382 5.75914894,9.11218837 6.0222695,8.99563712 C5.96836879,8.91864266 5.90666667,8.81833795 5.99957447,8.74063712 C6.07687943,8.80350416 6.12368794,8.94972299 6.18609929,9.05073407 L6.18609929,9.05073407 Z M9.9648227,13.4549584 C9.94141844,13.6788781 9.74,13.8342798 9.60737589,13.9268144 C9.53007092,13.8731302 9.58468085,13.6562742 9.59177305,13.5333657 C9.64567376,13.34759 9.85560284,13.2861357 9.98822695,13.1540443 C10.2364539,13.2691828 9.95702128,13.3320499 9.9648227,13.4549584 L9.9648227,13.4549584 Z M7.07829787,13.2931994 C7.04,13.1695845 7.00028369,13.0615097 7.07829787,13.0692798 L7.07829787,13.2931994 Z M9.8329078,13.0000554 C9.45276596,13.3242798 9.14921986,13.6795845 8.80099291,14.0278255 C8.83219858,14.3131994 8.63716312,14.4601247 8.63716312,14.6070499 C8.93219858,14.3993767 9.1187234,14.0666759 9.35914894,13.8109695 C9.35205674,13.9967452 9.22723404,14.1507341 9.23503546,14.3131994 C9.21234043,14.4601247 9.05702128,14.4057341 9.01021277,14.491205 C8.78539007,14.5371191 8.85489362,14.6303601 8.68397163,14.7695152 C8.47546099,14.7539751 8.48255319,14.5371191 8.32014184,14.62259 C8.32723404,14.428338 8.56836879,14.2821191 8.50595745,14.0581994 C8.57617021,13.9896814 8.67758865,13.9112742 8.63007092,13.7876593 C9.00241135,13.4945152 9.36695035,13.2232687 9.76340426,13.0389058 L9.8329078,13.0000554 Z M11.6102128,15.1092798 C11.2371631,14.6374238 11.0662411,13.9896814 10.546383,13.5637396 C10.3364539,13.1999584 10.0116312,12.9145845 9.69319149,12.6673546 C10.5860993,13.2628255 11.2371631,14.1740443 11.6102128,15.1092798 L11.6102128,15.1092798 Z M9.37475177,12.6440443 C9.00241135,12.5592798 8.51375887,12.3890443 8.09531915,12.2032687 L7.66765957,12.4271884 C7.59815603,12.2802632 7.8541844,12.2195152 7.73078014,12.034446 C7.60524823,12.0026593 7.68255319,11.8253601 7.69106383,11.7398892 C8.28893617,11.9638089 8.86269504,12.2265789 9.37475177,12.6440443 L9.37475177,12.6440443 Z M12.1839716,17.8457618 C11.9357447,17.8846122 11.6258156,17.8146814 11.3619858,17.6903601 C11.4392908,17.5745152 11.6095035,17.6599861 11.7180142,17.6903601 L12.1839716,17.8457618 Z M12.1605674,17.6366759 L11.9357447,17.5674515 C12.0201418,17.5596814 12.0293617,17.3972161 12.1222695,17.4360665 L12.1605674,17.6366759 Z M12.3782979,17.2509972 C12.5102128,17.992687 12.7116312,18.7188366 12.9839716,19.4068421 C12.9683688,19.5537673 12.8747518,19.6547784 12.781844,19.7614404 C12.6343262,19.2210665 12.4704965,18.6792798 12.44,18.1233657 C12.362695,17.8605956 12.2853901,17.5519114 12.3158865,17.2509972 L12.3782979,17.2509972 Z M6.50382979,10.6888089 C6.42652482,10.5574238 6.28609929,10.4719529 6.26269504,10.3412742 C6.34921986,10.4338089 6.38822695,10.5722576 6.50382979,10.6888089 L6.50382979,10.6888089 Z M15.4506383,9.62218837 C15.675461,9.48303324 15.8236879,9.21319945 16.1102128,9.0966482 C16.1726241,9.1432687 16.0875177,9.19624654 16.0953191,9.25134349 C15.9314894,9.27465374 15.9790071,9.46819945 15.8073759,9.50634349 C15.8151773,9.74580332 15.5286525,9.83904432 15.5130496,10.0467175 C15.5286525,10.1237119 15.6371631,10.2176593 15.5591489,10.2868837 C15.4428369,10.3405679 15.3350355,10.386482 15.2804255,10.5108033 C15.3506383,10.7191828 15.0002837,10.7813435 15.2258156,10.9671191 C15.1641135,11.1684349 14.9080851,11.0674238 14.9158865,11.2991136 C14.8066667,11.3372576 14.7371631,11.368338 14.6598582,11.469349 C14.6832624,11.6240443 14.4343262,11.6007341 14.4889362,11.7780332 C14.2641135,11.8790443 13.9768794,11.9404986 13.7832624,12.0181994 C13.7520567,12.1495845 13.5967376,12.0563435 13.5655319,12.1573546 C13.4251064,12.2110388 13.1924823,12.2498892 13.1378723,12.4356648 C13.0300709,12.5515097 12.8208511,12.5048892 12.6960284,12.6136704 C12.2619858,12.8220499 11.7719149,12.8220499 11.4548936,13.1618144 C11.4307801,13.2154986 11.3612766,13.2628255 11.3612766,13.3320499 C11.9740426,13.5637396 12.5953191,13.7728255 13.2151773,13.9586011 C13.3017021,13.8646537 13.3868085,13.695831 13.5265248,13.7417452 C13.488227,13.8809003 13.4251064,13.9967452 13.4251064,14.142964 C13.5967376,14.236205 13.6889362,13.9819114 13.7747518,13.8498199 C13.8676596,13.695831 13.9612766,13.5178255 14.0853901,13.4090443 C14.0541844,13.5948199 13.9534752,13.7339751 13.9073759,13.887964 C14.0385816,13.9586011 13.9995745,13.7269114 14.146383,13.7558726 C14.2407092,13.5637396 14.2946099,13.3857341 14.4577305,13.2232687 C14.504539,13.3857341 14.3414184,13.5411357 14.4577305,13.6103601 C14.4655319,13.4641413 14.6598582,13.5559695 14.6442553,13.3942105 C14.752766,13.3631302 14.7442553,13.2232687 14.8300709,13.1921884 C14.9002837,13.0233657 15.0485106,13.0141828 15.1790071,12.8835042 C15.2875177,12.7831994 15.2570213,12.5748199 15.4279433,12.5515097 C15.4201418,12.7224515 15.2258156,12.8764404 15.3265248,13.0141828 C15.4974468,12.8453601 15.675461,12.6673546 15.7300709,12.3812742 C15.8704965,12.4504986 15.7151773,12.5748199 15.769078,12.7365789 C15.7761702,12.6362742 15.94,12.6595845 15.9314894,12.5515097 C16.017305,12.3897507 16.1648227,12.2039751 16.1726241,11.9871191 C16.3669504,12.1954986 16.2896454,11.7858033 16.4825532,11.8945845 C16.5456738,11.6939751 16.7782979,11.6240443 16.8017021,11.368338 C16.9485106,11.3372576 17.1116312,11.3542105 17.1350355,11.2221191 C17.298156,11.176205 17.3442553,10.959349 17.5151773,10.8823546 C17.6470922,10.6732687 17.7790071,10.4726593 17.910922,10.2402632 C17.9577305,10.1547922 17.9187234,10.101108 17.9499291,10.0163435 C18.104539,10.101108 17.9967376,10.2402632 18.1357447,10.2713435 C18.3137589,10.0940443 18.2293617,9.87718837 18.4541844,9.71401662 C18.5158865,9.68364266 18.562695,9.61441828 18.64,9.64479224 C18.6704965,9.54519391 18.7102128,9.42087258 18.8187234,9.41310249 C18.9279433,9.66033241 18.6641135,9.89202216 18.5470922,10.1088781 C18.6009929,10.0855679 18.7102128,10.1399584 18.6470922,10.2176593 C18.5158865,10.449349 18.4222695,10.5418837 18.4080851,10.6647922 C18.4385816,10.7276593 18.5697872,10.6810388 18.5158865,10.7968837 C18.3534752,10.9904294 18.2293617,11.2454294 18.0116312,11.3768144 L18.3066667,11.1988089 C18.2215603,11.5308033 18.0428369,11.7709695 17.833617,12.009723 C17.7158865,12.1495845 17.8641135,12.264723 17.7556028,12.3968144 C17.5846809,12.5133657 17.6470922,12.744349 17.5073759,12.8601939 C17.4534752,12.9922853 17.5924823,13.2402216 17.3442553,13.2310388 L16.8790071,13.6718144 C17.0414184,13.8731302 16.7151773,13.8731302 16.7151773,14.0589058 C16.4052482,14.3139058 16.0087943,14.4996814 15.7612766,14.8154294 C16.9485106,15.2251247 18.104539,15.6736704 19.2995745,16.0289751 C19.3307801,16.5156648 19.3151773,16.9797507 19.2378723,17.4049861 C19.152766,17.4982271 18.9584397,17.3816759 18.810922,17.4360665 L18.7258156,16.6166759 C17.3286525,17.2573546 15.8853901,18.030831 14.504539,18.7195429 C14.4038298,19.0741413 14.3960284,19.4760665 14.3414184,19.8617452 C14.1782979,19.9323823 13.9534752,19.8935319 13.8215603,19.8236011 C13.8988652,19.4690028 13.875461,19.1518421 13.9456738,18.7880609 C13.6038298,18.6566759 13.2704965,18.4942105 12.898156,18.4256925 C12.9442553,18.9201524 13.3790071,19.4527562 12.9442553,19.9323823 C12.8747518,20.032687 12.704539,20.194446 12.6258156,20.0171468 C12.4478014,19.4146122 12.4095035,18.8269114 12.2534752,18.2166066 C11.8662411,18.0774515 11.4619858,17.8761357 11.027234,17.7991413 C10.9038298,17.9298199 10.7719149,17.899446 10.6321986,17.9609003 C10.369078,18.0696814 10.1655319,18.0696814 10.0187234,18.2017729 C9.80170213,18.2865374 9.66269504,18.2095429 9.63858156,18.3395152 C9.22014184,18.3013712 8.73929078,18.3324515 8.33503546,18.2936011 C8.27333333,18.4871468 8.12510638,18.2243767 8.07900709,18.3783657 C7.93929078,18.4942105 7.73716312,18.3091413 7.57546099,18.3395152 C6.92297872,18.2017729 6.25560284,18.4256925 5.71234043,18.8269114 C5.60312057,18.8346814 5.49531915,18.7802909 5.47191489,18.6729224 C5.55702128,18.2243767 6.11588652,18.2702909 6.46553191,18.0774515 C7.15560284,17.9072161 7.34921986,17.1033657 8.00170213,16.9486704 C8.14851064,16.9952909 8.18751773,16.9182964 8.21943262,16.8335319 L7.41943262,16.5474515 L3.7329078,15.2795152 C3.56340426,15.5571191 3.61730496,15.8276593 3.55489362,16.114446 C3.42297872,16.114446 3.15134752,16.2225208 3.12865248,16.021205 C3.12085106,15.5959695 3.19815603,15.3021191 3.23007092,14.9093767 C3.97475177,14.5145152 4.68822695,14.1048199 5.38680851,13.6640443 C5.31659574,13.6018837 5.20099291,13.6492105 5.10666667,13.6259003 C5.16198582,13.4401247 5.36269504,13.3172161 5.40241135,13.122964 L5.2541844,13.09259 C5.33929078,12.9371884 5.77404255,12.7514127 5.59531915,12.4964127 C5.96836879,12.3353601 6.21659574,12.0330332 6.5187234,11.8091136 C6.78255319,11.8719806 7.03219858,11.6395845 7.26411348,11.5399861 C6.79035461,11.2680332 6.36411348,10.8442105 6.10099291,10.348338 C5.89106383,10.3327978 5.67333333,10.317964 5.50312057,10.2098892 C5.21588652,9.88495845 5.16198582,9.45265928 4.93716312,9.10441828 C5.13787234,9.0034072 5.23078014,8.93418283 5.2541844,8.8416482 C5.26978723,8.62549861 5.55702128,8.81127424 5.61234043,8.60218837 C5.81304965,8.67141274 5.91446809,8.43195291 6.07687943,8.43972299 L6.20879433,8.70249307 C6.46553191,9.06627424 6.75985816,9.5600277 6.48042553,10.0008033 C6.37971631,10.0855679 6.36411348,10.2176593 6.43432624,10.3257341 C6.66695035,10.7502632 7.07049645,11.1599584 7.48893617,11.3146537 C7.52723404,11.0441136 7.44283688,10.8194875 7.41943262,10.5722576 C7.3577305,10.4338089 7.29531915,10.2713435 7.33432624,10.1321884 C7.54425532,9.94711911 7.10170213,9.65397507 7.46624113,9.59110803 C7.52085106,9.66810249 7.48893617,9.78465374 7.57546099,9.84610803 C7.55205674,9.66810249 7.67546099,9.55296399 7.62156028,9.36718837 C7.74496454,9.43641274 7.80028369,9.32127424 7.86198582,9.25134349 C8.02510638,9.06627424 7.91588652,9.26688366 8.0329078,9.25134349 C8.12510638,9.16587258 8.13361702,8.94972299 8.31163121,9.018241 C8.28893617,9.16587258 8.12510638,9.29796399 8.07900709,9.47596953 C8.04070922,9.61441828 8.09531915,9.76911357 8.15631206,9.89202216 C8.32794326,10.0085734 8.21943262,10.0544875 8.28042553,10.1237119 L8.43574468,10.1547922 C8.27333333,10.3638781 8.10241135,10.5496537 8.12510638,10.7580332 C8.33503546,10.896482 7.96269504,11.0363435 7.93148936,11.1988089 L7.80028369,11.4615789 C8.8470922,11.8868144 9.84921986,12.4194183 10.6712057,13.3242798 C10.717305,13.0770499 10.6080851,12.8220499 10.6080851,12.5974238 C10.5307801,12.5274931 10.4534752,12.4504986 10.4385816,12.3586704 C10.5307801,12.32759 10.717305,12.2880332 10.6080851,12.1495845 C10.5768794,12.0026593 10.4612766,11.8635042 10.469078,11.724349 C10.5860993,11.6699584 10.5541844,11.8168837 10.6165957,11.8719806 C10.8024113,11.754723 10.8499291,11.5618837 10.7797163,11.3372576 C10.9350355,11.2835734 10.7868085,11.1451247 10.9421277,11.0751939 C10.8499291,10.8442105 11.0974468,10.866108 11.0903546,10.6732687 C11.0584397,10.5877978 11.1208511,10.4952632 11.1286525,10.3956648 C11.2371631,10.4804294 11.1910638,10.6351247 11.2924823,10.6584349 C11.2924823,10.5418837 11.4236879,10.5263435 11.4385816,10.4175623 C11.4853901,10.2713435 11.4236879,10.0008033 11.5790071,9.91674515 C11.6641135,9.99373961 11.5563121,10.1484349 11.6719149,10.2098892 C11.6797163,9.96972299 11.8896454,10.0008033 11.8428369,9.73096953 C11.9584397,9.76911357 11.8967376,9.88495845 11.9740426,9.93934903 C12.0208511,9.77688366 12.0910638,9.67587258 12.1371631,9.51411357 C12.3321986,9.32127424 12.291773,9.20542936 12.3860993,9.22096953 C12.5719149,9.18918283 12.5017021,9.52965374 12.6804255,9.38202216 C12.7584397,9.34387812 12.781844,9.24427978 12.8747518,9.26688366 C12.952766,9.18918283 12.9761702,9.0034072 13.0995745,9.0034072 C13.0995745,9.16587258 12.9761702,9.32127424 12.9364539,9.49080332 C13.0768794,9.47596953 13.091773,9.31279778 13.1924823,9.29796399 C13.3095035,9.25911357 13.2931915,9.04296399 13.4492199,9.07333795 L13.3407092,9.32127424 C13.4407092,9.31279778 13.4102128,9.18141274 13.5265248,9.22096953 C13.6194326,9.06627424 13.7520567,9.07333795 13.8215603,8.90310249 C13.9073759,9.0034072 13.7747518,9.08110803 13.7669504,9.18141274 C13.9307801,9.3050277 14.0080851,9.07333795 14.1782979,9.11995845 C14.2946099,9.06627424 14.4577305,9.3050277 14.5506383,9.12702216 C14.5740426,9.17364266 14.6903546,9.18918283 14.7371631,9.12702216 C14.9307801,9.15033241 14.7676596,9.18141274 14.7137589,9.29796399 C14.8144681,9.22732687 14.9619858,9.29019391 15.0314894,9.16587258 C15.0868085,9.10441828 15.2102128,9.0500277 15.2726241,9.08887812 L15.1641135,9.29019391 C15.2102128,9.43641274 15.1719149,9.45901662 15.1719149,9.49080332 C15.3350355,9.4300554 15.3889362,9.35941828 15.4428369,9.3982687 C15.5052482,9.52188366 15.3655319,9.49857341 15.3428369,9.56779778 L15.4506383,9.62218837 Z" id="Fill-71" fill="#333333" mask="url(#mask-2)"></path>
                    <path d="M39.1208511,40.9292659 L39.0782979,40.9292659 L39.1208511,40.9292659 C39.1208511,41.3410803 38.7513475,41.6759003 38.2967376,41.6759003 C37.8414184,41.6759003 37.4726241,41.3410803 37.4726241,40.9292659 L37.5144681,40.9292659 L37.4726241,40.9292659 L37.4726241,0.783365651 C37.4726241,0.371551247 37.8414184,0.0367313019 38.2967376,0.0367313019 C38.7513475,0.0367313019 39.1208511,0.371551247 39.1208511,0.783365651 L39.1208511,40.9292659 Z" id="Fill-72" fill="#333333" mask="url(#mask-2)"></path>
                </g>
            </g>
        </g>
    </g>
</svg>