<svg xmlns="http://www.w3.org/2000/svg" xmlns:xlink="http://www.w3.org/1999/xlink" viewBox="0 0 60 21.28"><defs><style>.\37 f1654c4-1553-425d-8f2d-80f448b3c997{fill:url(#bf12ee13-30a4-448a-b93d-18c505fc7945);}.af3bd657-4389-46c5-b44d-fad8bae83f68{fill:url(#a5cce729-5b2b-4976-887f-6c71d0a7dd34);}.\33 e9f876e-4a52-4291-b4a2-66d036f5f24e{fill:url(#babe48a5-6b1b-43bd-ba88-8ea0dad1e4a7);}.\36 195e7a9-58e4-4e0c-ad34-892fa284adc2{fill:url(#6cf6168e-e33f-4d21-af60-3a8c472a72f7);}.aff7044b-3a0d-4725-9d58-762cb88fb6ac{fill:url(#f1a2659d-c44c-4937-88e4-03ef8317e120);}.\39 4ef3bd3-0877-42f7-a0b1-adf918323535{fill:url(#3f8c8533-c4c8-4c3f-a315-f65b81e5841b);}</style><linearGradient id="bf12ee13-30a4-448a-b93d-18c505fc7945" x1="2.67" y1="2.67" x2="18.6" y2="18.6" gradientUnits="userSpaceOnUse"><stop offset="0" stop-color="#00a977"/><stop offset="0.18" stop-color="#00a97c"/><stop offset="0.38" stop-color="#00a889"/><stop offset="0.59" stop-color="#00a69f"/><stop offset="0.8" stop-color="#00a4be"/><stop offset="1" stop-color="#00a2e2"/></linearGradient><linearGradient id="a5cce729-5b2b-4976-887f-6c71d0a7dd34" x1="20.52" y1="12.33" x2="27.19" y2="5.66" gradientUnits="userSpaceOnUse"><stop offset="0" stop-color="#706f6f"/><stop offset="0" stop-color="#706f6f"/><stop offset="0.21" stop-color="#595858"/><stop offset="0.43" stop-color="#494848"/><stop offset="0.67" stop-color="#3f3f3e"/><stop offset="1" stop-color="#3c3c3b"/></linearGradient><linearGradient id="babe48a5-6b1b-43bd-ba88-8ea0dad1e4a7" x1="26.4" y1="13.61" x2="35.18" y2="4.82" xlink:href="#a5cce729-5b2b-4976-887f-6c71d0a7dd34"/><linearGradient id="6cf6168e-e33f-4d21-af60-3a8c472a72f7" x1="35.22" y1="13.61" x2="41.13" y2="7.7" xlink:href="#a5cce729-5b2b-4976-887f-6c71d0a7dd34"/><linearGradient id="f1a2659d-c44c-4937-88e4-03ef8317e120" x1="44.06" y1="13.61" x2="49.97" y2="7.7" xlink:href="#a5cce729-5b2b-4976-887f-6c71d0a7dd34"/><linearGradient id="3f8c8533-c4c8-4c3f-a315-f65b81e5841b" x1="51.66" y1="14.83" x2="60" y2="6.49" xlink:href="#a5cce729-5b2b-4976-887f-6c71d0a7dd34"/></defs><title>Asset 13idees</title><g id="f70f7b05-e943-4ce0-86e7-bded3fda707b" data-name="Layer 2"><g id="633d12ef-ce27-4795-aa4e-99a3c51156be" data-name="Capa 1"><path class="7f1654c4-1553-425d-8f2d-80f448b3c997" d="M21.12,13.39,17.91,2.6A3.63,3.63,0,0,0,13.39.15L2.6,3.37A3.63,3.63,0,0,0,.15,7.88l3.21,10.8a3.63,3.63,0,0,0,4.52,2.44l10.79-3.21A3.63,3.63,0,0,0,21.12,13.39Zm-4.05.3a3.28,3.28,0,0,1-2,1.64L7.14,17.68l-.55-1.84,7.91-2.36a1.47,1.47,0,0,0,.28-2.71,1.41,1.41,0,0,0-1.12-.12L5.75,13,5.2,11.18l7.91-2.36A1.47,1.47,0,0,0,14.1,7a1.47,1.47,0,0,0-1.83-1L4.36,8.36,3.81,6.51l7.91-2.36a3.39,3.39,0,0,1,4.22,2.28A3.29,3.29,0,0,1,15.68,9l0,0,0,0a3.4,3.4,0,0,1,1.37,4.6Z"/><path class="af3bd657-4389-46c5-b44d-fad8bae83f68" d="M23,3.15h1.67V4.82H23Zm0,11.67h1.67V6.49H23Z"/><path class="3e9f876e-4a52-4291-b4a2-66d036f5f24e" d="M31.85,7.32a4.18,4.18,0,0,0-5.45.4,4,4,0,0,0-1.22,2.95,4.17,4.17,0,0,0,7.12,2.95,4,4,0,0,0,1.22-2.95V3.15H31.85Zm-.73,5.11a2.5,2.5,0,0,1-4.27-1.77,2.5,2.5,0,1,1,4.27,1.77Z"/><path class="6195e7a9-58e4-4e0c-ad34-892fa284adc2" d="M42.18,9.5a4.17,4.17,0,0,0-8,2.33,4.17,4.17,0,0,0,7.66.84,4.18,4.18,0,0,0,.49-1.47l-1.9.55-.06.12a2.5,2.5,0,0,1-3.39,1,2.49,2.49,0,0,1-.84-.73l6.2-1.8A4.51,4.51,0,0,0,42.18,9.5Zm-6.51,1A2.49,2.49,0,0,1,36,9.45a2.5,2.5,0,0,1,3.39-1,2.5,2.5,0,0,1,.84.73Z"/><path class="aff7044b-3a0d-4725-9d58-762cb88fb6ac" d="M51,9.5a4.17,4.17,0,0,0-8,2.33,4.17,4.17,0,0,0,7.66.84,4.18,4.18,0,0,0,.49-1.47l-1.9.55-.06.12a2.5,2.5,0,0,1-3.39,1,2.49,2.49,0,0,1-.84-.73l6.2-1.8A4.51,4.51,0,0,0,51,9.5Zm-6.51,1a2.49,2.49,0,0,1,.32-1.06,2.5,2.5,0,0,1,3.39-1,2.49,2.49,0,0,1,.84.73Z"/><path class="94ef3bd3-0877-42f7-a0b1-adf918323535" d="M54.16,8.16H60V6.49H54.16A2.51,2.51,0,0,0,51.66,9a2.51,2.51,0,0,0,2.5,2.5H57.5a.83.83,0,0,1,0,1.67H51.66v1.67H57.5a2.51,2.51,0,0,0,2.5-2.5,2.51,2.51,0,0,0-2.5-2.5H54.16a.83.83,0,0,1,0-1.67Z"/></g></g></svg>