<?xml version="1.0" standalone="no"?>
<!DOCTYPE svg PUBLIC "-//W3C//DTD SVG 20010904//EN"
 "http://www.w3.org/TR/2001/REC-SVG-20010904/DTD/svg10.dtd">
<svg version="1.0" xmlns="http://www.w3.org/2000/svg"
 width="205.000000pt" height="205.000000pt" viewBox="0 0 205.000000 205.000000"
 preserveAspectRatio="xMidYMid meet">
<metadata>
Created by potrace 1.11, written by Peter Selinger 2001-2013
</metadata>
<g transform="translate(0.000000,205.000000) scale(0.100000,-0.100000)"
fill="#000000" stroke="none">
<path d="M270 1025 l0 -1025 730 0 c402 0 730 2 730 5 0 3 -176 269 -391 592
-215 322 -393 593 -396 601 -4 9 137 157 413 433 l419 419 -753 0 -752 0 0
-1025z m1164 874 c-10 -12 -144 -147 -298 -300 l-278 -279 -192 287 c-106 159
-195 294 -200 301 -6 9 95 12 490 12 l497 0 -19 -21z m-845 -413 c143 -216
169 -261 159 -273 -20 -24 -340 -343 -344 -343 -2 0 -4 201 -4 447 0 259 4
443 9 438 5 -6 86 -126 180 -269z m580 -870 c176 -264 318 -482 316 -485 -2
-3 -245 -6 -542 -6 l-538 0 -3 275 -2 275 217 217 c120 120 221 214 225 210 4
-4 151 -223 327 -486z"/>
</g>
</svg>
