<svg width="200" height="44" viewBox="0 0 200 44" xmlns="http://www.w3.org/2000/svg" xmlns:xlink="http://www.w3.org/1999/xlink"><title>logo_ajuntament</title><defs><path id="a" d="M0 41.676h199.61V.036H0z"/></defs><g fill="none" fill-rule="evenodd"><path fill="#333" d="M82.028 37.577v-8.383h1.113v7.393h4.145v.99zM88.457 37.577h1.177v-8.382h-1.177z"/><g transform="translate(0 .67)"><path d="M90.708 33.87c0-1.123.314-1.957.941-2.498.524-.45 1.164-.675 1.918-.675.838 0 1.523.274 2.055.821.532.547.798 1.303.798 2.267 0 .781-.118 1.396-.353 1.844a2.496 2.496 0 0 1-1.028 1.044c-.45.248-.94.371-1.472.371-.854 0-1.543-.272-2.07-.818-.526-.544-.789-1.33-.789-2.356zm1.062 0c0 .778.17 1.361.511 1.747.34.387.769.581 1.286.581.513 0 .94-.194 1.28-.583.34-.389.51-.982.51-1.778 0-.751-.17-1.32-.513-1.707a1.637 1.637 0 0 0-1.277-.58c-.517 0-.945.192-1.286.577-.341.385-.511.966-.511 1.743zM97.62 36.907v-6.072h.93v.92c.237-.43.456-.714.657-.852.201-.137.422-.206.663-.206.349 0 .703.111 1.062.332l-.356.955a1.484 1.484 0 0 0-.757-.223.983.983 0 0 0-.609.203 1.1 1.1 0 0 0-.385.563 3.993 3.993 0 0 0-.172 1.2v3.18h-1.034zM105.72 34.951l1.068.132c-.169.621-.48 1.104-.936 1.446-.455.344-1.037.515-1.745.515-.892 0-1.599-.273-2.122-.82-.522-.547-.783-1.314-.783-2.302 0-1.021.264-1.814.792-2.378.528-.565 1.213-.847 2.055-.847.816 0 1.482.277 1.998.83.517.552.775 1.33.775 2.332 0 .062-.002.153-.005.275h-4.547c.038.667.227 1.177.568 1.532.341.355.766.532 1.274.532.38 0 .703-.099.97-.297.269-.199.481-.515.638-.95m-3.393-1.663h3.404c-.046-.511-.175-.895-.39-1.15a1.588 1.588 0 0 0-1.28-.594c-.475 0-.873.158-1.197.474-.323.317-.503.74-.537 1.27M108.085 36.907v-6.072h.93v.863c.448-.667 1.095-1 1.94-1 .368 0 .706.065 1.014.197.308.13.538.304.692.517.153.214.26.467.32.76.04.191.058.525.058 1.001v3.734h-1.033v-3.693c0-.42-.04-.734-.12-.941a.987.987 0 0 0-.428-.498 1.359 1.359 0 0 0-.72-.185c-.44 0-.82.139-1.14.417-.32.278-.48.806-.48 1.584v3.316h-1.033zM118.602 34.683l1.017.131c-.112.698-.396 1.244-.853 1.638-.457.395-1.019.592-1.685.592-.835 0-1.505-.272-2.012-.815-.507-.542-.76-1.322-.76-2.335 0-.656.108-1.23.327-1.722.217-.491.55-.86.995-1.106a2.966 2.966 0 0 1 1.456-.369c.662 0 1.203.167 1.625.5.42.334.69.808.809 1.422l-1.005.154c-.095-.408-.265-.714-.508-.92a1.32 1.32 0 0 0-.88-.31c-.521 0-.945.186-1.27.558-.325.372-.488.96-.488 1.764 0 .816.157 1.408.47 1.778.315.37.724.555 1.23.555.405 0 .744-.124 1.015-.372.272-.247.444-.629.517-1.143m-2.394 2.99l.299-1.012h.77l-.19.612c.325.038.57.138.735.3a.743.743 0 0 1 .246.54c0 .286-.137.539-.413.758-.275.219-.69.33-1.245.33-.315 0-.59-.024-.827-.07l.063-.67c.245.016.424.024.54.024.359 0 .611-.05.758-.149.11-.076.166-.17.166-.28a.28.28 0 0 0-.066-.182.52.52 0 0 0-.244-.138c-.119-.038-.316-.059-.592-.063M54.242 34.205l1.051-.09c.05.418.165.762.347 1.031.182.269.465.486.847.651.383.166.813.25 1.292.25.425 0 .8-.064 1.125-.19.325-.125.567-.298.726-.517.159-.22.238-.458.238-.717 0-.263-.076-.493-.23-.689-.153-.196-.405-.362-.757-.495-.226-.088-.725-.224-1.498-.408-.773-.185-1.315-.36-1.625-.524-.402-.21-.702-.47-.899-.78a1.912 1.912 0 0 1-.295-1.044c0-.423.12-.818.362-1.186.241-.368.593-.647 1.056-.838.463-.19.978-.285 1.544-.285.624 0 1.174.1 1.65.3.477.2.843.494 1.1.883.256.389.394.829.413 1.32l-1.067.08c-.058-.53-.252-.93-.583-1.2-.33-.27-.82-.406-1.467-.406-.674 0-1.165.123-1.472.369-.308.246-.463.542-.463.89 0 .3.11.548.328.742.214.195.774.394 1.679.598.905.203 1.526.382 1.863.535.49.224.851.509 1.085.854.233.345.35.743.35 1.192 0 .446-.128.867-.385 1.26-.256.396-.625.702-1.105.921-.48.22-1.02.33-1.622.33-.76 0-1.4-.112-1.914-.333a2.677 2.677 0 0 1-1.211-.997 2.824 2.824 0 0 1-.463-1.507M66.31 36.15c-.383.323-.752.552-1.105.686-.354.133-.735.2-1.14.2-.67 0-1.185-.163-1.544-.49-.36-.325-.54-.741-.54-1.249a1.686 1.686 0 0 1 .738-1.406c.22-.15.468-.261.743-.338.203-.053.51-.104.918-.154.835-.1 1.45-.217 1.844-.354l.005-.27c0-.418-.098-.714-.293-.885-.264-.233-.656-.35-1.177-.35-.486 0-.845.086-1.076.255-.232.17-.403.47-.514.9l-1.01-.136c.092-.431.243-.779.453-1.044.211-.264.515-.469.913-.612.398-.143.86-.214 1.384-.214.52 0 .943.06 1.269.183.325.122.564.275.717.46.153.185.26.419.322.7.034.176.051.492.051.95v1.372c0 .957.022 1.562.066 1.815.044.254.132.497.261.73h-1.08a2.18 2.18 0 0 1-.205-.75zm-.086-2.3c-.375.153-.939.283-1.688.39-.425.06-.726.13-.902.205a.873.873 0 0 0-.551.824c0 .274.105.503.313.686.209.183.514.274.916.274.398 0 .751-.086 1.062-.26a1.6 1.6 0 0 0 .683-.712c.11-.232.167-.575.167-1.03v-.376zM68.87 36.899v-6.073h.93v.863c.448-.667 1.095-1 1.94-1 .367 0 .706.066 1.013.197.308.131.54.305.692.518.153.213.26.467.322.76.038.19.057.524.057 1V36.9h-1.033v-3.695c0-.418-.04-.732-.12-.94a.994.994 0 0 0-.428-.497 1.362 1.362 0 0 0-.72-.186c-.441 0-.82.14-1.14.418-.32.277-.48.806-.48 1.583V36.9H68.87zM77.665 35.978l.149.909c-.291.061-.551.092-.78.092-.376 0-.666-.06-.873-.178a.994.994 0 0 1-.437-.466c-.084-.192-.126-.598-.126-1.215v-3.494h-.758v-.8h.758v-1.504l1.028-.617v2.121h1.039v.8h-1.04v3.551c0 .294.019.483.055.566a.428.428 0 0 0 .178.2c.083.05.2.075.353.075.115 0 .266-.014.454-.04M127.724 36.899v-.767c-.386.602-.954.904-1.705.904-.485 0-.932-.134-1.34-.4a2.637 2.637 0 0 1-.948-1.118c-.223-.48-.335-1.029-.335-1.65 0-.606.101-1.156.304-1.65.203-.493.507-.871.913-1.135a2.448 2.448 0 0 1 1.36-.394 2.034 2.034 0 0 1 1.683.835v-3.008h1.027V36.9h-.959zm-3.266-3.031c0 .777.164 1.359.493 1.744.33.385.718.578 1.166.578.451 0 .835-.185 1.15-.552.317-.368.474-.93.474-1.684 0-.832-.16-1.441-.482-1.83-.321-.389-.717-.583-1.188-.583-.46 0-.843.186-1.15.56-.31.374-.463.963-.463 1.767zM134.481 34.943l1.068.131c-.169.622-.48 1.104-.936 1.447-.455.343-1.037.515-1.745.515-.892 0-1.599-.274-2.12-.821-.524-.547-.785-1.314-.785-2.301 0-1.022.264-1.814.793-2.379.528-.564 1.213-.846 2.055-.846.815 0 1.48.276 1.998.83.516.552.774 1.33.774 2.332 0 .061-.001.152-.005.274h-4.547c.038.667.228 1.178.569 1.533.34.354.765.532 1.274.532.379 0 .702-.1.97-.298.268-.198.48-.515.637-.95m-3.393-1.663h3.404c-.045-.51-.175-.894-.39-1.149a1.587 1.587 0 0 0-1.28-.595c-.474 0-.873.158-1.197.475-.323.316-.502.74-.537 1.27M136.433 35.086l1.022-.16c.057.407.217.72.48.937.262.218.628.327 1.099.327.474 0 .827-.097 1.056-.29.23-.192.344-.418.344-.677a.625.625 0 0 0-.304-.549c-.141-.091-.494-.207-1.056-.349-.758-.19-1.283-.355-1.576-.494a1.524 1.524 0 0 1-.666-.578 1.525 1.525 0 0 1-.227-.814c0-.27.063-.522.187-.753.125-.23.293-.421.508-.574.16-.118.38-.218.657-.3.278-.082.575-.123.893-.123.479 0 .899.069 1.26.206.362.137.629.323.8.558.173.233.292.547.357.94l-1.01.137c-.046-.312-.18-.557-.4-.732-.22-.175-.53-.263-.933-.263-.474 0-.812.079-1.015.235-.203.156-.304.339-.304.549 0 .133.041.253.126.36.083.11.216.202.396.274.103.038.407.126.912.263.731.195 1.241.354 1.53.478.29.124.516.304.68.54.165.236.248.53.248.88 0 .344-.101.667-.302.97a1.95 1.95 0 0 1-.87.703 3.183 3.183 0 0 1-1.286.249c-.792 0-1.395-.164-1.811-.492-.415-.328-.68-.814-.795-1.458M152.129 33.96l1.113.28c-.233.91-.653 1.606-1.26 2.084s-1.348.717-2.224.717c-.907 0-1.645-.183-2.214-.551-.568-.368-1-.9-1.297-1.599a5.684 5.684 0 0 1-.445-2.247c0-.873.168-1.634.503-2.284a3.436 3.436 0 0 1 1.429-1.48 4.188 4.188 0 0 1 2.04-.506c.843 0 1.551.213 2.125.64.574.427.974 1.027 1.2 1.8l-1.097.258c-.195-.61-.478-1.054-.85-1.332-.37-.279-.838-.418-1.4-.418-.647 0-1.188.155-1.622.464-.435.308-.74.723-.916 1.243a4.99 4.99 0 0 0-.263 1.61c0 .712.104 1.335.312 1.867.209.531.533.928.973 1.192.44.263.917.394 1.43.394.624 0 1.152-.179 1.584-.538.433-.358.725-.89.879-1.594M158.46 36.15c-.382.323-.75.552-1.104.686-.354.133-.734.2-1.14.2-.67 0-1.185-.163-1.544-.49-.36-.325-.54-.741-.54-1.249a1.686 1.686 0 0 1 .738-1.406c.22-.15.468-.261.743-.338.203-.053.51-.104.918-.154.835-.1 1.45-.217 1.844-.354l.005-.27c0-.418-.097-.714-.292-.885-.264-.233-.657-.35-1.178-.35-.486 0-.844.086-1.076.255-.232.17-.403.47-.514.9l-1.01-.136c.092-.431.243-.779.453-1.044.211-.264.515-.469.913-.612.398-.143.86-.214 1.384-.214.52 0 .943.06 1.269.183.325.122.564.275.717.46.153.185.26.419.322.7.034.176.051.492.051.95v1.372c0 .957.022 1.562.066 1.815.044.254.132.497.261.73h-1.079a2.18 2.18 0 0 1-.206-.75zm-.085-2.3c-.375.153-.939.283-1.688.39-.425.06-.726.13-.902.205a.873.873 0 0 0-.551.824c0 .274.105.503.313.686.209.183.514.274.916.274.398 0 .751-.086 1.062-.26a1.6 1.6 0 0 0 .683-.712c.11-.232.167-.575.167-1.03v-.376zM161.01 36.899v-6.073h.93v.92c.237-.43.456-.714.657-.851.2-.137.422-.206.663-.206.348 0 .702.11 1.062.331l-.356.955a1.49 1.49 0 0 0-.758-.223.986.986 0 0 0-.608.204 1.1 1.1 0 0 0-.385.563 3.993 3.993 0 0 0-.172 1.2v3.18h-1.033zM168.892 36.899v-.767c-.387.602-.956.904-1.705.904-.487 0-.934-.134-1.34-.4a2.637 2.637 0 0 1-.948-1.118c-.224-.48-.336-1.029-.336-1.65 0-.606.101-1.156.304-1.65.203-.493.507-.871.913-1.135.406-.263.86-.394 1.36-.394a2.036 2.036 0 0 1 1.683.835v-3.008h1.027V36.9h-.958zm-3.267-3.031c0 .777.165 1.359.494 1.744.329.385.717.578 1.165.578.452 0 .835-.185 1.151-.552.316-.368.474-.93.474-1.684 0-.832-.161-1.441-.482-1.83-.322-.389-.718-.583-1.19-.583-.458 0-.842.186-1.15.56-.308.374-.462.963-.462 1.767zM175.453 36.15c-.383.323-.75.552-1.104.686-.355.133-.735.2-1.14.2-.67 0-1.185-.163-1.545-.49-.36-.325-.54-.741-.54-1.249 0-.297.068-.568.205-.814.135-.246.313-.444.534-.592a2.5 2.5 0 0 1 .743-.338c.203-.053.51-.104.918-.154.834-.1 1.449-.217 1.843-.354l.006-.27c0-.418-.098-.714-.293-.885-.264-.233-.656-.35-1.177-.35-.486 0-.845.086-1.076.255-.232.17-.403.47-.514.9l-1.01-.136c.092-.431.243-.779.453-1.044.21-.264.515-.469.913-.612.398-.143.859-.214 1.384-.214.52 0 .943.06 1.269.183.324.122.564.275.717.46.153.185.26.419.322.7.034.176.051.492.051.95v1.372c0 .957.022 1.562.066 1.815.044.254.13.497.261.73h-1.08a2.18 2.18 0 0 1-.206-.75zm-.086-2.3c-.375.153-.938.283-1.687.39-.425.06-.726.13-.902.205a.873.873 0 0 0-.551.824c0 .274.104.503.313.686.209.183.513.274.916.274.397 0 .751-.086 1.061-.26.31-.173.539-.41.684-.712.11-.232.166-.575.166-1.03v-.376zM177.6 35.086l1.022-.16c.058.407.217.72.48.937.261.218.628.327 1.099.327.474 0 .827-.097 1.056-.29.23-.192.345-.418.345-.677a.625.625 0 0 0-.305-.549c-.141-.091-.493-.207-1.056-.349-.758-.19-1.283-.355-1.575-.494a1.524 1.524 0 0 1-.666-.578 1.519 1.519 0 0 1-.227-.814c0-.27.062-.522.186-.753a1.67 1.67 0 0 1 .508-.574c.16-.118.38-.218.657-.3.278-.082.576-.123.893-.123.478 0 .899.069 1.26.206.362.137.629.323.801.558.173.233.291.547.356.94l-1.01.137c-.046-.312-.179-.557-.4-.732-.22-.175-.53-.263-.932-.263-.475 0-.814.079-1.017.235-.202.156-.304.339-.304.549a.57.57 0 0 0 .126.36c.085.11.217.202.397.274.103.038.408.126.913.263.73.195 1.24.354 1.53.478.289.124.515.304.68.54.164.236.246.53.246.88 0 .344-.1.667-.301.97-.2.303-.49.537-.87.703a3.183 3.183 0 0 1-1.285.249c-.793 0-1.396-.164-1.812-.492-.415-.328-.68-.814-.795-1.458M183.479 35.086l1.022-.16c.057.407.217.72.48.937.261.218.628.327 1.099.327.474 0 .826-.097 1.056-.29.23-.192.344-.418.344-.677a.625.625 0 0 0-.304-.549c-.142-.091-.493-.207-1.057-.349-.757-.19-1.283-.355-1.575-.494a1.532 1.532 0 0 1-.666-.578 1.524 1.524 0 0 1-.227-.814c0-.27.062-.522.187-.753a1.67 1.67 0 0 1 .508-.574c.16-.118.38-.218.657-.3.277-.082.575-.123.893-.123.478 0 .898.069 1.26.206.361.137.629.323.801.558.172.233.29.547.355.94l-1.01.137c-.046-.312-.178-.557-.399-.732-.22-.175-.531-.263-.933-.263-.474 0-.813.079-1.016.235-.203.156-.304.339-.304.549 0 .133.042.253.126.36.085.11.216.202.397.274.102.038.407.126.912.263.73.195 1.242.354 1.53.478.289.124.516.304.68.54.165.236.247.53.247.88 0 .344-.1.667-.301.97-.201.303-.491.537-.87.703a3.186 3.186 0 0 1-1.286.249c-.792 0-1.396-.164-1.811-.492-.416-.328-.68-.814-.795-1.458M193.75 36.15c-.384.323-.752.552-1.106.686-.354.133-.734.2-1.14.2-.669 0-1.184-.163-1.543-.49-.36-.325-.54-.741-.54-1.249a1.686 1.686 0 0 1 .738-1.406c.22-.15.468-.261.743-.338.203-.053.509-.104.918-.154.835-.1 1.45-.217 1.843-.354l.006-.27c0-.418-.098-.714-.293-.885-.264-.233-.657-.35-1.177-.35-.486 0-.845.086-1.076.255-.232.17-.403.47-.514.9l-1.01-.136c.091-.431.242-.779.453-1.044.21-.264.515-.469.913-.612.398-.143.86-.214 1.384-.214.52 0 .943.06 1.268.183.325.122.565.275.718.46.153.185.26.419.321.7.034.176.052.492.052.95v1.372c0 .957.022 1.562.066 1.815.044.254.131.497.261.73h-1.08a2.18 2.18 0 0 1-.206-.75zm-.087-2.3c-.375.153-.938.283-1.688.39-.424.06-.725.13-.901.205a.873.873 0 0 0-.551.824c0 .274.104.503.313.686.208.183.513.274.915.274.398 0 .752-.086 1.063-.26a1.6 1.6 0 0 0 .683-.712c.11-.232.166-.575.166-1.03v-.376zM196.298 36.899v-6.073h.93v.92c.238-.43.457-.714.657-.851.201-.137.422-.206.664-.206.348 0 .702.11 1.061.331l-.355.955a1.49 1.49 0 0 0-.758-.223.986.986 0 0 0-.609.204c-.18.134-.308.322-.384.563a3.993 3.993 0 0 0-.173 1.2v3.18h-1.033zM69.364 19.673h-3.31l-1.316-3.41h-6.024l-1.244 3.41h-3.228l5.87-15.01h3.217l6.035 15.01zm-5.603-5.938l-2.076-5.57-2.036 5.57h4.112z" fill="#333"/><mask id="b" fill="#fff"><use xlink:href="#a"/></mask><path d="M70.895 7.325h2.889V4.663h-2.889v2.662zM73.784 8.8v10.535c0 1.386-.091 2.363-.273 2.933a2.378 2.378 0 0 1-1.048 1.336c-.518.321-1.177.482-1.979.482-.288 0-.598-.026-.93-.077-.333-.051-.69-.128-1.075-.23l.504-2.458c.138.028.266.05.386.067s.231.026.334.026c.294 0 .536-.064.725-.19a.913.913 0 0 0 .375-.455c.062-.178.092-.71.092-1.598V8.8h2.889zM83.992 19.673v-1.628a4.199 4.199 0 0 1-1.568 1.372 4.404 4.404 0 0 1-2.05.501c-.734 0-1.391-.16-1.974-.48a2.85 2.85 0 0 1-1.265-1.352c-.26-.58-.39-1.382-.39-2.406V8.8h2.889v4.996c0 1.529.052 2.466.158 2.81.107.345.3.618.581.82.281.2.638.302 1.07.302.493 0 .935-.135 1.325-.405.391-.27.659-.604.802-1.003.144-.4.216-1.377.216-2.934V8.8h2.889v10.873h-2.683zM99.597 19.673h-2.889v-5.55c0-1.173-.062-1.932-.185-2.277a1.599 1.599 0 0 0-.601-.804c-.278-.191-.612-.287-1.003-.287-.5 0-.95.137-1.346.41-.398.273-.67.634-.817 1.085-.148.45-.222 1.283-.222 2.498v4.925h-2.888V8.8h2.683v1.597c.952-1.229 2.151-1.843 3.598-1.843.637 0 1.22.115 1.747.343.528.229.927.52 1.198.876.27.354.459.757.565 1.208.107.45.16 1.095.16 1.934v6.758zM107.532 8.8v2.293h-1.974v4.382c0 .887.02 1.404.057 1.551a.629.629 0 0 0 .258.363.812.812 0 0 0 .488.144c.267 0 .654-.092 1.161-.276l.247 2.232c-.672.287-1.433.43-2.282.43-.52 0-.99-.088-1.409-.261-.417-.175-.725-.4-.92-.676-.195-.277-.33-.65-.406-1.121-.062-.335-.092-1.01-.092-2.028v-4.74h-1.326V8.8h1.326V6.64l2.898-1.68V8.8h1.974zM111.696 12.117l-2.621-.471c.294-1.051.801-1.83 1.521-2.335.72-.505 1.789-.757 3.207-.757 1.289 0 2.248.152 2.878.456.63.304 1.075.69 1.331 1.157.258.467.386 1.326.386 2.575l-.031 3.358c0 .955.047 1.66.139 2.114.093.454.266.94.52 1.46h-2.858a10.51 10.51 0 0 1-.278-.85 4.943 4.943 0 0 0-.103-.339 5.187 5.187 0 0 1-1.583 1.075 4.551 4.551 0 0 1-1.799.358c-1.124 0-2.01-.303-2.657-.911-.648-.607-.972-1.375-.972-2.303 0-.614.148-1.162.442-1.643.295-.481.708-.85 1.239-1.106.531-.256 1.297-.48 2.298-.671 1.35-.252 2.285-.488 2.806-.706v-.287c0-.553-.137-.947-.411-1.183-.275-.235-.792-.353-1.553-.353-.514 0-.914.101-1.202.303-.288.2-.521.554-.699 1.06zm3.865 2.334c-.37.123-.956.27-1.758.44-.802.171-1.326.338-1.573.502-.377.267-.565.604-.565 1.014 0 .403.15.75.452 1.044.302.294.685.44 1.151.44.522 0 1.018-.17 1.491-.511.35-.26.579-.578.689-.953.075-.245.113-.713.113-1.402v-.574zM121.03 8.8h2.662v1.484c.953-1.153 2.087-1.73 3.403-1.73.699 0 1.305.144 1.82.43.513.286.935.72 1.264 1.3.48-.58.996-1.014 1.552-1.3a3.83 3.83 0 0 1 1.779-.43c.8 0 1.48.162 2.035.486.555.324.97.8 1.243 1.428.2.465.299 1.215.299 2.253v6.952h-2.889v-6.215c0-1.078-.1-1.775-.298-2.088-.267-.41-.678-.615-1.234-.615-.404 0-.784.123-1.14.369-.357.246-.614.605-.772 1.08-.157.475-.236 1.223-.236 2.247v5.222h-2.889v-5.959c0-1.058-.051-1.74-.154-2.048-.102-.307-.262-.536-.478-.685-.216-.15-.509-.226-.879-.226-.445 0-.846.12-1.203.358-.356.24-.611.584-.765 1.034-.155.451-.232 1.198-.232 2.243v5.283h-2.888V8.8zM146.287 16.213l2.879.48c-.37 1.052-.955 1.852-1.754 2.402-.798.55-1.797.823-2.996.823-1.898 0-3.303-.617-4.214-1.853-.72-.99-1.08-2.238-1.08-3.747 0-1.802.473-3.213 1.419-4.233.945-1.02 2.142-1.53 3.587-1.53 1.625 0 2.906.533 3.845 1.601.939 1.068 1.388 2.705 1.346 4.91h-7.236c.02.853.253 1.517.699 1.99.445.475 1 .713 1.665.713.453 0 .833-.123 1.141-.369.308-.246.541-.641.699-1.187zm.164-2.908c-.02-.833-.236-1.466-.647-1.9a1.992 1.992 0 0 0-1.5-.65c-.631 0-1.153.23-1.563.686-.412.458-.614 1.079-.607 1.864h4.317zM161.604 19.673h-2.889v-5.55c0-1.173-.062-1.932-.185-2.277a1.595 1.595 0 0 0-.601-.804c-.278-.191-.612-.287-1.002-.287-.5 0-.95.137-1.347.41-.397.273-.67.634-.817 1.085-.148.45-.222 1.283-.222 2.498v4.925h-2.888V8.8h2.683v1.597c.953-1.229 2.152-1.843 3.598-1.843.637 0 1.22.115 1.747.343.529.229.927.52 1.198.876.27.354.459.757.565 1.208.107.45.16 1.095.16 1.934v6.758zM169.54 8.8v2.293h-1.974v4.382c0 .887.019 1.404.056 1.551a.632.632 0 0 0 .258.363.813.813 0 0 0 .488.144c.267 0 .654-.092 1.161-.276l.247 2.232c-.671.287-1.432.43-2.282.43-.52 0-.99-.088-1.408-.261-.418-.175-.725-.4-.92-.676-.196-.277-.331-.65-.406-1.121-.062-.335-.093-1.01-.093-2.028v-4.74h-1.326V8.8h1.326V6.64l2.9-1.68V8.8h1.973zM187.406 19.673h-2.683v-1.597c-.445.62-.972 1.083-1.578 1.387a4.062 4.062 0 0 1-1.835.455c-1.254 0-2.328-.503-3.222-1.51-.895-1.007-1.342-2.41-1.342-4.213 0-1.843.435-3.243 1.305-4.203.87-.958 1.97-1.438 3.3-1.438 1.22 0 2.276.505 3.166 1.515V4.663h2.889v15.01zm-7.71-5.672c0 1.16.161 2 .483 2.518.466.751 1.117 1.127 1.953 1.127.665 0 1.23-.282 1.697-.845.466-.563.698-1.404.698-2.524 0-1.249-.225-2.148-.678-2.697-.452-.55-1.031-.825-1.737-.825-.685 0-1.26.271-1.722.814-.463.543-.694 1.353-.694 2.432zM196.575 16.213l2.878.48c-.369 1.052-.953 1.852-1.752 2.402s-1.797.823-2.996.823c-1.899 0-3.304-.617-4.215-1.853-.72-.99-1.08-2.238-1.08-3.747 0-1.802.473-3.213 1.42-4.233.945-1.02 2.14-1.53 3.587-1.53 1.624 0 2.905.533 3.844 1.601.94 1.068 1.388 2.705 1.347 4.91h-7.237c.02.853.253 1.517.699 1.99.445.475 1 .713 1.665.713.453 0 .833-.123 1.141-.369.309-.246.542-.641.7-1.187zm.165-2.908c-.02-.833-.237-1.466-.648-1.9a1.993 1.993 0 0 0-1.5-.65c-.63 0-1.152.23-1.563.686-.411.458-.613 1.079-.607 1.864h4.318zM11.212 37.05C3.926 33.617-.732 25.56.095 7.828h.003c2.989-2.193 7.063-3.187 11.074-3.166h.006c4.01-.021 8.085.973 11.073 3.166h.004c.827 17.731-3.758 25.788-11.043 29.22zM.393 8.015c-.76 17.205 3.768 25.212 10.819 28.573 7.051-3.36 11.505-11.368 10.744-28.573h-.003c-2.909-2.134-6.874-3.102-10.778-3.08-3.905-.022-7.87.946-10.778 3.08H.393z" fill="#333" mask="url(#b)"/><path d="M11.212 35.5c-4.305-2.051-7.667-5.96-9.215-12.923h18.266c-1.548 6.96-4.748 10.873-9.051 12.923" fill="#333" mask="url(#b)"/><path d="M13.933 33.387c-.523.41-1.077.784-1.649 1.113m0 0V22.86h1.649v10.526M9.958 34.41V22.861H8.31v10.416m0 0c.531.425 1.075.797 1.648 1.133M4.379 28.424V22.86h1.648v8.108a16.731 16.731 0 0 1-1.648-2.545M16.237 31.075V22.86h1.648v5.633a16.2 16.2 0 0 1-1.648 2.58" fill="#333" mask="url(#b)"/><path d="M10.32 34.604V22.86h1.65v11.815c-.248.134-.503.263-.758.383-.299-.141-.601-.295-.891-.455M8.004 33.009a14.968 14.968 0 0 1-1.65-1.64V22.86h1.65v10.148zM14.26 33.12V22.86h1.649v8.616a13.898 13.898 0 0 1-1.648 1.643M4.047 27.76C3.37 26.31 2.822 24.768 2.4 22.86h1.648v4.899zM19.862 22.861h-1.649v4.965c.667-1.435 1.22-3.07 1.649-4.965" fill="#FFF" mask="url(#b)"/><path d="M21.215 9c.227 5.134-.047 9.386-.742 12.901H1.878C1.184 18.388.908 14.131 1.136 9h.003C3.847 7.012 7.54 6.112 11.175 6.13c3.636-.02 7.328.881 10.037 2.869h.003zm-19.808.26c-.217 4.917.03 8.96.682 12.348H20.26c.65-3.384.9-7.443.683-12.349h-.003c-2.635-1.934-6.228-2.81-9.766-2.79-3.537-.02-7.13.856-9.765 2.79h-.003z" fill="#333" mask="url(#b)"/><path d="M13.232 15.032c-.125.11.092.17 0 .294-.101.155-.164.348-.311.464 0-.217.078-.34.032-.425.1-.101.093-.417.28-.333zm-5.013-.108c-.078.223-.434.41-.48.487a1.01 1.01 0 0 1 .48-.487zm6.812.047c-.077.068-.302.115-.372.169.048-.108.125-.231.25-.278l.122.109zm.816-.58a1.08 1.08 0 0 1-.273.254.707.707 0 0 0-.231-.069c-.048-.1.115-.054.147-.154.115.038.256-.109.357-.032zm.473-.533c-.147.069-.296.316-.457.192.007-.115.21-.216.31-.316.023.061.202-.008.147.124zm.838-.796l-.225.185c-.202-.17.133-.348.233-.503.101.132-.031.201-.008.318zm1.08-2.474c-.016.1-.288.232-.055.356-.248.317-.443.634-.808.895.186.056.272-.045.388-.16a5.32 5.32 0 0 1-.752.988c-.156.07-.287.349-.435.464-.179.132-.288.355-.504.364-.163.2-.38.409-.582.502-.234.316-.435.448-.55.642-.072-.017-.149-.086-.195-.04-.1.2-.256.263-.396.349-.015.1-.147.069-.21.132-.24.3-.49.455-.768.64-.186.054-.287.185-.466.239-.06.217-.27-.06-.333.194-.163 0-.21.186-.396.17-.202.03-.28.224-.435.31-.161-.009-.161.208-.333.13-.085.147-.264.008-.32.147-.137-.007-.284.102-.425.102-.132.13-.302.13-.466.146-.224-.062-.324.255-.534.178-.133.008-.163.109-.273.154-.124-.255-.302.077-.466-.007-.108.053-.224.185-.34.108-.187.022-.38.177-.59.139-.055.085-.155-.032-.21.054-.31.2-.69.301-.97.332.326-.232.613-.457.87-.772.03.154.162.007.27.053.234.07.24-.162.397-.231.117.007.163.045.225.014.108-.107.148-.262.279-.347-.015.123-.116.263-.202.386.466-.293.629-.587.861-.81.172.168-.294.277-.007.448.303-.271.566-.573.768-.92-.015.277-.24.533-.395.749.512-.324.776-.75 1.117-1.167-.086.07-.039.255-.101.356-.17.232-.318.487-.496.696.356-.232.566-.512.83-.719.1-.108.14-.294.287-.333.101-.054.093-.201.201-.208-.038.108-.092.255-.023.356.264-.186.412-.51.62-.735-.077.294.102.518-.062.664l.698-.765c-.053-.077-.029-.192.078-.21-.022.079.04.179.109.226.07-.016.125.023.202-.04l.21-.34c.062.125-.287.333-.008.318.116-.178.248-.263.326-.472.063-.038.147-.015.21-.092-.032.069-.093.131-.093.209.046.131.139-.008.185-.023.179-.372.528-.51.715-.897.1.008.061-.116.146-.148l.171-.069c.016.156.172.009.218-.015.085.039-.101.286.116.217.186-.178.225-.456.442-.65.24-.007.202-.27.366-.34l.225-.185c.263-.317.45-.635.658-.943.087.053.202.07.28 0l.342-.626c.163.03.224-.124.319-.232l.07.069zm-8.46 7.157c-.155.062-.14.131-.17.17-.481.023-.962.34-1.49.131.14-.154.356-.108.489-.255.117.085.217-.085.333 0 .125.1.241-.1.373-.023.17-.078.396-.131.559-.278 0 .147-.234.123-.094.255zm1.483-.58c.007.17-.178.17-.193.318-.14.084-.327-.023-.436.161-.078-.132-.17.078-.256.04.016-.109-.116-.101-.093-.21.217.086.334-.24.473-.139.117-.023.225-.124.319-.054.061-.024.1-.124.186-.115zm.799-.378c-.04.054-.132.085-.093.17-.109.07.038.116.015.216-.177.14-.287.155-.348.147 0-.078.193-.116.07-.209-.14.008-.219-.1-.28-.038l.558-.3.078.014zm.69-.178l.186-.04c-.154.071-.286.232-.395.14-.055-.278 0-.069.078-.162l.132.062zm.994-.657c.015.286-.334.24-.504.34-.031-.1-.18-.162-.078-.225.17.047.279-.146.435-.177l.147.062zm.916-.518c-.087.085-.179.186-.32.217-.091-.116-.209.115-.316-.015.092-.094.123-.255.247-.279.14.193.302-.14.389.077zm-9.46-.58c-.046.147.202.04.116.2.172.024.194.101.257.078.613.07 1.163.217 1.691.418-.201.109 0 .264-.21.355-.993-.347-1.9-.68-2.894-1.005.078-.123.242-.177.373-.263l.667.217zm6.984-.053c-.046.04-.1.04-.163 0-.147-.055-.185.068-.248.115-.109-.07-.155-.239-.21-.363.21.062.49.077.621.248zm-1.118.308c-.054.124-.131.317-.278.379a.347.347 0 0 1-.101.155c-.1-.007-.055-.132-.156-.155l-1.66-.548c0-.093.063-.155.109-.225.186.14.248-.078.348-.178l1.738.572zm-3.483-.27c.092.17-.18.287-.164.464-.473-.17-1.024-.317-1.474-.518l.085-.17c.311.162.187-.108.28-.201.41.13.846.256 1.273.425zm5.284-.471l-.179.285c-.085-.13-.023-.301.008-.425.094-.014.217.04.171.14zm-7.605-.318c-.589.194-.962.58-1.512.758l.65.371 4.191 1.469c-1.777-.418-3.46-1.074-5.16-1.647l1.739-.98.092.03zm5.844.727c-.256-.123-.575-.17-.87-.247-.232-.092-.426-.162-.573-.232.256-.58.814-.016 1.21 0l.233.48zm-3.05-.664c-.077.1.093.246-.07.3.04.117-.062.124-.116.201-.42-.123-.783-.255-1.187-.416 0-.148.093-.31.117-.48l1.256.395zm4.508.061a.44.44 0 0 1-.132.31c-.48-.17-1.14-.124-1.374-.688 0-.125.18-.086.233-.039l1.273.417zm.49-.108c-.171.07-.28-.117-.45-.117l-1.296-.454c.597.161 1.17.354 1.745.571zm-2.46-.186c-.148 0-.343-.077-.498-.13-.023-.101.032-.248.094-.356.162.132.288.332.404.486zm-4.68.016c-.086.063-.155.209-.217.294-.124.17-.085.37-.248.325-.062-.133.077-.287.062-.41.092-.023.038-.123.038-.186.21-.1.132-.378.342-.472l.349-.107c-.047.193-.217.356-.326.556zm2.6-.324a.57.57 0 0 0-.21.308l-1.133-.424.078-.317c.434.108.853.262 1.265.433zm.73-.503c-.093.062-.272.146-.343.27-.372-.108-.799-.2-1.117-.379.49-.238.97-.108 1.46.11zm-2.43-.147c.101 0 .078.124.063.186-.117.077-.187.224-.172.332-.131.06-.046.324-.201.371-.1.093-.04-.147-.178-.061-.086.146-.124.317-.187.478-.178.116-.193.348-.349.318.225-.627.784-1.168 1.056-1.833-.008.07-.071.14-.032.21zm2.716-.015c-.396-.055-.721-.21-1.118-.34-.178-.07-.325-.147-.527-.007l.225-.132c.489.132.946.332 1.42.479zm-2.398-.882c-.279.349-.612.704-.798 1.145-.148-.17-.38.185-.576.115-.178-.046-.107-.2-.038-.277.133-.101.341-.117.435-.264-.11-.123-.14.008-.279-.054.046-.2.287-.393.504-.471.03-.078.039-.194.14-.194.2.086.457-.077.612 0zm.45-.34c-.022.17-.109.395-.163.597-.139.107-.364.154-.279.431-.279-.022.016-.263 0-.463.087-.146.264-.263.31-.418-.069-.138.031-.192.133-.147zm4.431-.223c-.108.069-.224.231-.372.178-.046-.27.124-.487.1-.727-.279.54-.333 1.182-.65 1.654-.055.232-.141.449-.172.68-.085-.17-.046-.363-.124-.54.046-.186.094-.387-.023-.573.163-.24.21-.355.217-.471 0-.07-.023-.178.094-.187.116-.154-.015-.57.263-.486.116-.108.155-.286.187-.441.434.14.208-.44.566-.44.023-.085.03-.208.132-.184.053.1.116-.024.17-.04 0-.177.194-.187.318-.225-.062.087-.014.164 0 .265.086-.087.194.03.28-.087.147-.022.318-.115.426-.185l-1.412 1.809zm2.607 6.661c-.41.504-1.008-.077-1.528-.162l-.387-.162-.078-.363c.675.2 1.342.432 1.993.687zm1.118-.525l-.651.324a41.885 41.885 0 0 1-2.453-.857c.195-.116.473-.14.652-.287.83.248 1.661.503 2.452.82zm3.329-.363l-.193-.008.038-.711c.07-.014.124-.07.195-.077l-.04.796zm-2.257-.132l-.645.286c-.862-.231-1.684-.587-2.546-.85-.023-.146.24-.085.195-.255l.278-.146 2.732.912-.014.053zm.969-.494c-.218.085-.45.378-.73.178-.845-.302-1.652-.519-2.49-.865l.318-.263a43.94 43.94 0 0 1 2.902.95zm-10.204-.773c.613.016 1.078.17 1.528.34-.139.078-.21.41-.38.302l-1.536-.556.365-.364c.054.116-.241.239.023.278zm-4.152.077c-.1-.216-.132-.494-.062-.703l.062.703zm6.705-.177c-.024.123-.132.316-.279.363-.024-.093-.094-.093-.164-.117-.147-.046-.163-.084-.247.024a12.096 12.096 0 0 1-1.405-.517l.318-.363c.605.177 1.195.393 1.777.61zm8.473.455c-.116.14-.272.186-.457.24-1.032-.386-2.01-.65-3.019-1.012-.094-.093.186-.163.04-.264 1.271.241 2.335.673 3.436 1.036zm.583-.03a1533.07 1533.07 0 0 1-4.998 2.496c-.442-.2-1.025-.27-1.389-.526.512.07.993.24 1.483.433 1.52-.795 3.095-1.538 4.64-2.311.046-.038.046-.115.016-.161-1.018-.318-2.026-.681-3.004-1.022 1.093.333 2.173.704 3.252 1.091zm-3.841-6.593c-.21.146-.42.364-.69.395-.102-.124.092-.178.131-.295-.218-.215-.41.14-.653.217.11-.1.008-.21.039-.263-.24.032-.395.008-.488.038-.38.434-.682.913-1.087 1.33.597-.116.994-.387 1.529-.534-.032.101.124.155 0 .209l-1.497.588c-.047.078-.116.084-.171.155.263.16.55-.148.838-.008-.606.278-1.156.054-1.599.541l-.194.2c-.155.41-.426.781-.458 1.245.148-.03.218-.2.319-.302.155-.293.387-.27.589-.417-.015-.038-.054-.147.03-.13.079 0 .165.015.21-.071l-.333-.038c.404-.146.869.022 1.132-.217.397-.184.738-.425 1.166-.525-.017-.124.085-.224.162-.303-.062-.176.14-.077.21-.215.108.03.14-.069.194-.108-.054-.279-.21-.07-.373-.1-.155-.092.015-.117.109-.148.123-.123.52-.084.427-.363.078-.053.256-.108.146-.24.024-.31.39-.277.42-.587l-.108-.054zm-1.118 9.328c.015.28-.046.542-.086.82l-.078-.65.14-.17h.024zm-6.34-7.844c-.054-.07-.14-.17-.078-.224-.022.101.132.116.078.224zm.039-.665c.132.186-.24.218-.093.387-.21-.14.03-.325-.125-.502l.039-.294c-.046.192.311.217.179.41zM6.186 9.051c.155.208.302.448.233.718-.031.194-.233.27-.218.487.054-.193.125-.34.148-.487-.023-.085-.023-.186-.078-.263-.249.04.046.395-.24.472a.274.274 0 0 1-.241-.069c.085-.218-.17-.426-.271-.627-.017-.062-.055-.1-.04-.17.062-.03.118-.085.187-.077l.178.464c.124-.217-.085-.387.178-.503-.054-.077-.115-.178-.022-.255.077.063.124.209.186.31zm3.779 4.404c-.024.224-.225.38-.358.472-.077-.054-.022-.27-.015-.394.054-.185.264-.247.396-.379.248.115-.031.178-.023.301zm-2.887-.162c-.038-.123-.078-.231 0-.224v.224zM9.833 13c-.38.324-.684.68-1.032 1.028.031.285-.164.432-.164.579.295-.208.482-.54.722-.796-.007.186-.132.34-.124.502-.023.147-.178.093-.225.178-.225.046-.155.14-.326.279-.209-.016-.201-.233-.364-.147.007-.195.248-.34.186-.565.07-.068.172-.147.124-.27.372-.293.737-.565 1.133-.75l.07-.038zm1.777 2.11c-.373-.473-.544-1.12-1.064-1.546-.21-.364-.534-.65-.853-.897.893.596 1.544 1.507 1.917 2.442zm-2.235-2.466a7.585 7.585 0 0 1-1.28-.44l-.427.223c-.07-.147.186-.207.063-.393-.126-.031-.048-.209-.04-.294.598.224 1.172.487 1.684.904zm2.809 5.202c-.248.039-.558-.031-.822-.156.077-.115.248-.03.356 0l.466.156zm-.023-.21l-.225-.069c.084-.007.093-.17.186-.13l.039.2zm.217-.385c.132.742.334 1.468.606 2.156-.016.147-.11.248-.202.354-.148-.54-.312-1.082-.342-1.638-.077-.262-.155-.571-.124-.872h.062zm-5.874-6.562c-.077-.132-.218-.217-.241-.348.086.093.125.231.24.348zm8.947-1.067c.224-.139.373-.409.66-.525.062.046-.023.1-.016.154-.164.024-.116.217-.288.255.008.24-.278.333-.294.54.016.078.124.172.046.24-.116.055-.224.1-.279.225.07.208-.28.27-.054.456-.062.201-.318.1-.31.332a.463.463 0 0 0-.256.17c.023.155-.226.132-.171.309-.225.101-.512.162-.706.24-.03.132-.186.038-.217.14-.14.053-.374.092-.428.278-.108.116-.317.069-.442.178-.434.208-.924.208-1.241.548-.024.053-.094.1-.094.17a27.9 27.9 0 0 0 1.854.627c.087-.094.172-.263.312-.217-.039.139-.102.255-.102.401.172.093.264-.161.35-.293.093-.154.186-.332.31-.441-.03.186-.132.325-.178.479.132.07.093-.161.24-.132.094-.192.148-.37.31-.533.048.163-.116.318 0 .387.009-.146.203-.054.187-.216.109-.03.1-.17.186-.202.07-.169.219-.178.349-.308.109-.1.078-.31.249-.332-.008.17-.202.324-.101.462.17-.169.348-.347.403-.633.14.07-.015.194.04.356.006-.1.17-.077.161-.185.086-.162.234-.348.242-.565.194.208.117-.201.31-.092.063-.201.295-.271.319-.527.147-.03.31-.014.333-.146.163-.046.21-.263.38-.34.132-.209.264-.41.396-.642.047-.085.008-.139.039-.224.155.085.047.224.186.255.178-.177.093-.394.318-.557.062-.03.109-.1.186-.07.03-.099.07-.223.179-.23.109.246-.155.478-.272.695.054-.023.163.031.1.109-.131.231-.225.324-.239.447.03.063.162.016.108.132-.163.193-.287.448-.504.58l.295-.178c-.085.332-.264.572-.473.81-.118.14.03.256-.078.388-.171.116-.109.347-.249.463-.054.132.085.38-.163.371l-.465.44c.162.202-.164.202-.164.388-.31.255-.706.44-.954.756 1.188.41 2.344.859 3.539 1.214.03.487.015.95-.062 1.376-.085.093-.28-.023-.427.031l-.085-.82c-1.397.641-2.84 1.415-4.221 2.104-.101.354-.109.756-.164 1.142-.163.07-.388.032-.52-.038.078-.355.054-.672.125-1.036-.342-.131-.676-.294-1.048-.362.046.494.481 1.027.046 1.506-.07.1-.24.262-.318.085-.178-.602-.216-1.19-.373-1.8-.387-.14-.791-.34-1.226-.418-.123.13-.255.1-.395.162-.263.109-.466.109-.613.24-.217.086-.356.009-.38.139-.419-.039-.9-.008-1.304-.046-.062.193-.21-.07-.256.084-.14.116-.342-.069-.504-.038-.652-.138-1.32.086-1.863.487-.109.008-.217-.047-.24-.154.085-.449.644-.403.994-.596.69-.17.883-.974 1.536-1.128.147.046.186-.03.217-.115l-.8-.287-3.686-1.267c-.17.277-.116.548-.178.834-.132 0-.404.109-.426-.093-.008-.425.07-.719.101-1.112a32.925 32.925 0 0 0 2.157-1.245c-.07-.062-.186-.015-.28-.038.055-.186.256-.309.295-.503l-.148-.03c.085-.156.52-.342.341-.597.373-.16.622-.463.924-.687.264.063.513-.17.745-.269a3.067 3.067 0 0 1-1.163-1.192c-.21-.015-.428-.03-.598-.138-.287-.325-.341-.757-.566-1.106.2-.1.294-.17.317-.262.016-.217.303-.03.358-.24.201.07.302-.17.465-.162l.132.262c.257.364.55.858.271 1.299a.24.24 0 0 0-.046.325c.233.424.636.834 1.055.989.038-.27-.046-.496-.07-.743-.061-.138-.124-.3-.085-.44.21-.185-.232-.478.132-.54.055.076.023.193.11.254-.024-.178.1-.293.046-.479.123.07.178-.046.24-.116.163-.185.054.016.17 0 .093-.085.102-.301.28-.233-.023.148-.187.28-.233.458-.038.138.016.293.077.416.172.117.063.162.124.232l.156.03c-.163.21-.334.396-.31.604.209.138-.163.278-.195.44l-.13.264c1.046.425 2.048.957 2.87 1.862.046-.247-.063-.502-.063-.727-.077-.07-.155-.147-.17-.238.093-.031.28-.071.17-.21-.031-.146-.147-.285-.139-.425.117-.054.085.093.148.148.185-.117.233-.31.163-.535.155-.053.007-.192.162-.262-.092-.23.155-.209.148-.402-.032-.085.03-.178.039-.277.108.084.062.24.163.262 0-.116.132-.132.147-.24.046-.147-.015-.417.14-.501.085.077-.023.231.093.293.008-.24.218-.21.17-.479.116.038.055.154.132.208.047-.162.117-.263.163-.425.195-.193.155-.309.25-.293.185-.032.115.309.293.161.078-.038.102-.138.195-.115.078-.078.101-.264.225-.264 0 .163-.124.318-.164.488.14-.015.156-.178.256-.193.118-.039.101-.255.257-.225l-.108.248c.1-.008.07-.14.186-.1.092-.155.225-.148.295-.318.085.1-.047.178-.055.278.164.124.241-.108.411-.061.117-.054.28.185.373.007.023.047.14.062.186 0 .194.023.03.054-.023.171.1-.07.248-.008.317-.132.056-.062.18-.116.242-.077l-.109.201c.046.146.008.169.008.2.163-.06.217-.13.27-.092.063.124-.076.1-.1.17l.109.054zM39.12 40.93h-.042.043c0 .411-.37.746-.824.746-.456 0-.824-.335-.824-.747h.041-.041V.783c0-.411.368-.746.824-.746.454 0 .824.335.824.746V40.93z" fill="#333" mask="url(#b)"/></g></g></svg>