<svg version="1" xmlns="http://www.w3.org/2000/svg" width="273.333" height="273.333" viewBox="0 0 205.000000 205.000000"><path d="M27 102.5V205h73c40.2 0 73-.2 73-.5s-17.6-26.9-39.1-59.2C112.4 113.1 94.6 86 94.3 85.2c-.4-.9 13.7-15.7 41.3-43.3L177.5 0H27v102.5zm116.4-87.4c-1 1.2-14.4 14.7-29.8 30L85.8 73 66.6 44.3C56 28.4 47.1 14.9 46.6 14.2c-.6-.9 9.5-1.2 49-1.2h49.7l-1.9 2.1zM58.9 56.4C73.2 78 75.8 82.5 74.8 83.7c-2 2.4-34 34.3-34.4 34.3-.2 0-.4-20.1-.4-44.7 0-25.9.4-44.3.9-43.8.5.6 8.6 12.6 18 26.9zm58 87c17.6 26.4 31.8 48.2 31.6 48.5-.2.3-24.5.6-54.2.6H40.5l-.3-27.5-.2-27.5 21.7-21.7c12-12 22.1-21.4 22.5-21 .4.4 15.1 22.3 32.7 48.6z"/></svg>